<svg width="120" height="74" viewBox="0 0 120 74" fill="none" xmlns="http://www.w3.org/2000/svg">
<rect opacity="0.01" width="120" height="74" fill="#F5F5F5"/>
<path fill-rule="evenodd" clip-rule="evenodd" d="M21.246 39.5442H26.74C28.02 39.5422 28.877 39.7882 29.364 40.1342C29.845 40.4842 30.045 40.9022 30.055 41.5662V41.6342C30.042 42.3712 29.807 42.7802 29.321 43.1202C28.828 43.4532 28.004 43.6572 26.911 43.6542H21.246V39.5442V39.5442ZM28.727 32.0952C28.712 32.8242 28.475 33.2062 27.972 33.5382C27.464 33.8612 26.613 34.0502 25.514 34.0492H21.245V30.1422H25.854C26.888 30.1412 27.632 30.3562 28.075 30.6752C28.512 30.9992 28.717 31.3892 28.727 32.0262V32.0952ZM32.587 36.2492C33.983 35.2062 35.088 33.6042 35.075 31.2102V31.1432C35.081 29.1172 34.243 27.3792 32.751 26.2092C31.262 25.0342 29.165 24.4102 26.638 24.4102H15V49.3882H26.911C29.675 49.3872 32.018 48.8342 33.716 47.6522C35.419 46.4722 36.413 44.6142 36.402 42.2812V42.2132C36.434 39.1992 34.895 37.3632 32.587 36.2492V36.2492Z" fill="black"/>
<path fill-rule="evenodd" clip-rule="evenodd" d="M50.8353 41.5662V41.6342C50.8223 42.3712 50.5863 42.7802 50.0993 43.1202C49.6063 43.4542 48.7833 43.6572 47.6903 43.6542H42.0233V39.5442H47.5203C48.7983 39.5422 49.6563 39.7882 50.1433 40.1342C50.6233 40.4842 50.8243 40.9022 50.8353 41.5662V41.5662ZM49.5063 32.0952C49.4923 32.8242 49.2553 33.2072 48.7513 33.5382C48.2413 33.8612 47.3923 34.0512 46.2943 34.0472H42.0243V30.1432H46.6353C47.6673 30.1412 48.4133 30.3562 48.8543 30.6752C49.2913 30.9992 49.4953 31.3892 49.5063 32.0262V32.0952ZM53.3673 36.2492C54.7643 35.2072 55.8683 33.6042 55.8543 31.2102V31.1432C55.8603 29.1172 55.0223 27.3792 53.5303 26.2092C52.0413 25.0342 49.9453 24.4102 47.4173 24.4102H35.7793V49.3882H47.6903C50.4553 49.3872 52.7983 48.8352 54.4963 47.6522C56.1983 46.4722 57.1943 44.6152 57.1813 42.2812V42.2132C57.2143 39.1992 55.6733 37.3632 53.3673 36.2492V36.2492Z" fill="black"/>
<path fill-rule="evenodd" clip-rule="evenodd" d="M73.0426 36.8982V36.9662C73.0106 40.9152 70.4476 43.4842 66.4226 43.5172H62.9376V30.2782H66.4226C70.4386 30.3082 73.0126 32.9462 73.0426 36.8982M75.9596 27.9752C73.6176 25.7422 70.2996 24.4072 66.4226 24.4082H56.5566V49.3882H66.4286C70.3046 49.3882 73.6216 48.0332 75.9616 45.7842C78.3056 43.5382 79.6646 40.4002 79.6626 36.8972V36.8302C79.6646 33.3292 78.3046 30.2072 75.9596 27.9752" fill="black"/>
<mask id="mask0_0_1872" style="mask-type:luminance" maskUnits="userSpaceOnUse" x="78" y="24" width="27" height="26">
<path fill-rule="evenodd" clip-rule="evenodd" d="M78.5215 24H105V49.797H78.5215V24Z" fill="white"/>
</mask>
<g mask="url(#mask0_0_1872)">
<path fill-rule="evenodd" clip-rule="evenodd" d="M85.1415 36.831C85.1605 33.011 87.8275 29.981 91.7275 29.972C95.6235 29.977 98.3685 33.086 98.3815 36.898V36.965C98.3645 40.784 95.6965 43.814 91.7945 43.822C87.8995 43.817 85.1545 40.709 85.1415 36.897V36.831ZM101.272 27.753C98.9265 25.429 95.6165 23.998 91.7945 24C87.9745 23.998 84.6465 25.446 82.2835 27.788C79.9215 30.127 78.5215 33.359 78.5215 36.899V36.966C78.5205 40.504 79.9035 43.72 82.2495 46.044C84.5945 48.368 87.9075 49.798 91.7275 49.797H91.7325C95.5525 49.797 98.8785 48.349 101.238 46.009C103.601 43.669 105.001 40.438 105 36.898V36.832C105.001 33.293 103.619 30.078 101.272 27.753V27.753Z" fill="black"/>
</g>
</svg>
