<svg width="120" height="74" viewBox="0 0 120 74" fill="none" xmlns="http://www.w3.org/2000/svg">
<rect opacity="0.01" width="120" height="74" fill="#F5F5F5"/>
<path fill-rule="evenodd" clip-rule="evenodd" d="M19.7517 24.1393C19.7517 25.3472 19.3989 26.3078 18.7007 27.028C18.0023 27.7485 16.9872 28.105 15.6699 28.105H9.24819V22H4V43H9.24819V32.8275H16.2457C18.9167 32.8275 21.0404 32.0635 22.6243 30.5282C24.208 28.9929 25 26.8681 25 24.1395C25 23.3828 24.9353 22.6695 24.8056 22.0074H19.2335C19.5717 22.5967 19.7517 23.3025 19.7517 24.1393" fill="black"/>
<path fill-rule="evenodd" clip-rule="evenodd" d="M43.7445 23.9713C43.7445 26.6189 42.1896 27.9428 39.0794 27.9428H33.2481V22H28V43H33.2481V32.5764H40.8362C41.8223 32.5764 42.492 32.751 42.8376 33.1074C43.1903 33.4639 43.3631 34.1403 43.3631 35.1296V42.9927H48.6113V33.7984C48.6113 31.2016 47.2002 29.9068 44.3708 29.9068C47.4594 28.7284 49 26.408 49 22.9529C49 22.6256 48.9783 22.3127 48.9352 22H43.2982C43.5934 22.531 43.7445 23.193 43.7445 23.9713" fill="black"/>
<mask id="mask0_0_1914" style="mask-type:luminance" maskUnits="userSpaceOnUse" x="5" y="22" width="111" height="31">
<path fill-rule="evenodd" clip-rule="evenodd" d="M5 53H116V22H5V53Z" fill="white"/>
</mask>
<g mask="url(#mask0_0_1914)">
<path fill-rule="evenodd" clip-rule="evenodd" d="M50 43H55V22H50V43Z" fill="black"/>
<path fill-rule="evenodd" clip-rule="evenodd" d="M82 43H87V22H82V43Z" fill="black"/>
<path fill-rule="evenodd" clip-rule="evenodd" d="M77.241 22L72.6259 37.1081L67.8524 22H63L69.7144 43H75.4654L82 22H77.241Z" fill="black"/>
<path fill-rule="evenodd" clip-rule="evenodd" d="M58 43H63V22H58V43Z" fill="black"/>
<path fill-rule="evenodd" clip-rule="evenodd" d="M107.81 22.3212C109.162 23.9637 109.834 26.2342 109.834 29.1118C109.834 31.9895 109.161 34.253 107.81 35.9024C106.458 37.5447 104.583 38.3731 102.191 38.3731H101.809C99.4098 38.3731 97.5416 37.552 96.1899 35.9024C94.8382 34.2601 94.166 31.9895 94.166 29.1118C94.166 26.2342 94.8383 23.9707 96.1899 22.3212C96.282 22.2069 96.388 22.1071 96.4801 22H90.479C89.4954 24.0065 89 26.3699 89 29.1118C89 33.3818 90.196 36.7665 92.595 39.2584C94.9941 41.7577 98.1289 43 102 43C105.871 43 109.006 41.7505 111.405 39.2584C113.797 36.7665 115 33.3819 115 29.1118C115 26.3771 114.505 24.0065 113.521 22H107.52C107.612 22.107 107.718 22.2069 107.81 22.3212" fill="black"/>
<path fill-rule="evenodd" clip-rule="evenodd" d="M9.25543 49.6411H15.6787C17.0051 49.6411 18.0144 49.9921 18.7137 50.6867C19.3049 51.2739 19.6364 52.0548 19.723 53H25C24.9062 50.565 24.1205 48.6456 22.6426 47.2418C21.0566 45.745 18.9299 45 16.2554 45H4V53H9.25543V49.6411Z" fill="black"/>
<path fill-rule="evenodd" clip-rule="evenodd" d="M33.2482 49.6411H39.0796C42.0384 49.6411 43.5863 50.7584 43.7302 53H48.9783C48.9926 52.7923 49 52.5703 49 52.3555C49 50.2426 48.1937 48.4879 46.5882 47.0913C44.9827 45.6946 42.9958 45 40.6344 45H28V53H33.2482V49.6411Z" fill="black"/>
<path fill-rule="evenodd" clip-rule="evenodd" d="M50 53H55V45H50V53Z" fill="black"/>
<path fill-rule="evenodd" clip-rule="evenodd" d="M57 45V53H62.2567V50.6938L63.0234 53H68L65.3606 45H57Z" fill="black"/>
<path fill-rule="evenodd" clip-rule="evenodd" d="M78.5803 45L76 53H80.937L81.6826 50.7297V53H87V45H78.5803Z" fill="black"/>
<path fill-rule="evenodd" clip-rule="evenodd" d="M96.53 51.7908C97.919 50.2195 99.8458 49.4269 102.304 49.4269H102.696C105.154 49.4269 107.081 50.2126 108.47 51.7908C108.797 52.1597 109.081 52.5627 109.328 53H115C114.389 51.299 113.444 49.8232 112.164 48.5798C109.699 46.1956 106.478 45 102.5 45C98.5224 45 95.301 46.1956 92.836 48.5798C91.5562 49.8232 90.6182 51.299 90 53H95.6719C95.9264 52.5696 96.2101 52.1597 96.53 51.7908" fill="black"/>
<path fill-rule="evenodd" clip-rule="evenodd" d="M19.7517 24.1393C19.7517 25.3472 19.3989 26.3078 18.7007 27.028C18.0023 27.7485 16.9872 28.105 15.6699 28.105H9.24819V22H4V43H9.24819V32.8275H16.2457C18.9167 32.8275 21.0404 32.0635 22.6243 30.5282C24.208 28.9929 25 26.8681 25 24.1395C25 23.3828 24.9353 22.6695 24.8056 22.0074H19.2335C19.5717 22.5967 19.7517 23.3025 19.7517 24.1393" fill="black"/>
<path fill-rule="evenodd" clip-rule="evenodd" d="M43.7445 23.9713C43.7445 26.6189 42.1896 27.9428 39.0794 27.9428H33.2481V22H28V43H33.2481V32.5764H40.8362C41.8223 32.5764 42.492 32.751 42.8376 33.1074C43.1903 33.4639 43.3631 34.1403 43.3631 35.1296V42.9927H48.6113V33.7984C48.6113 31.2016 47.2002 29.9068 44.3708 29.9068C47.4594 28.7284 49 26.408 49 22.9529C49 22.6256 48.9783 22.3127 48.9352 22H43.2982C43.5934 22.531 43.7445 23.193 43.7445 23.9713" fill="black"/>
<path fill-rule="evenodd" clip-rule="evenodd" d="M50 43H55V22H50V43Z" fill="black"/>
<path fill-rule="evenodd" clip-rule="evenodd" d="M82 43H87V22H82V43Z" fill="black"/>
<path fill-rule="evenodd" clip-rule="evenodd" d="M77.241 22L72.6259 37.1081L67.8524 22H63L69.7144 43H75.4654L82 22H77.241Z" fill="black"/>
<path fill-rule="evenodd" clip-rule="evenodd" d="M58 43H63V22H58V43Z" fill="black"/>
<path fill-rule="evenodd" clip-rule="evenodd" d="M107.81 22.3212C109.162 23.9637 109.834 26.2342 109.834 29.1118C109.834 31.9895 109.161 34.253 107.81 35.9024C106.458 37.5447 104.583 38.3731 102.191 38.3731H101.809C99.4098 38.3731 97.5416 37.552 96.1899 35.9024C94.8382 34.2601 94.166 31.9895 94.166 29.1118C94.166 26.2342 94.8383 23.9707 96.1899 22.3212C96.282 22.2069 96.388 22.1071 96.4801 22H90.479C89.4954 24.0065 89 26.3699 89 29.1118C89 33.3818 90.196 36.7665 92.595 39.2584C94.9941 41.7577 98.1289 43 102 43C105.871 43 109.006 41.7505 111.405 39.2584C113.797 36.7665 115 33.3819 115 29.1118C115 26.3771 114.505 24.0065 113.521 22H107.52C107.612 22.107 107.718 22.2069 107.81 22.3212" fill="black"/>
<path fill-rule="evenodd" clip-rule="evenodd" d="M9.25543 49.6411H15.6787C17.0051 49.6411 18.0144 49.9921 18.7137 50.6867C19.3049 51.2739 19.6364 52.0548 19.723 53H25C24.9062 50.565 24.1205 48.6456 22.6426 47.2418C21.0566 45.745 18.9299 45 16.2554 45H4V53H9.25543V49.6411Z" fill="black"/>
<path fill-rule="evenodd" clip-rule="evenodd" d="M33.2482 49.6411H39.0796C42.0384 49.6411 43.5863 50.7584 43.7302 53H48.9783C48.9926 52.7923 49 52.5703 49 52.3555C49 50.2426 48.1937 48.4879 46.5882 47.0913C44.9827 45.6946 42.9958 45 40.6344 45H28V53H33.2482V49.6411Z" fill="black"/>
<path fill-rule="evenodd" clip-rule="evenodd" d="M50 53H55V45H50V53Z" fill="black"/>
<path fill-rule="evenodd" clip-rule="evenodd" d="M57 45V53H62.2567V50.6938L63.0234 53H68L65.3606 45H57Z" fill="black"/>
<path fill-rule="evenodd" clip-rule="evenodd" d="M78.5803 45L76 53H80.937L81.6826 50.7297V53H87V45H78.5803Z" fill="black"/>
<path fill-rule="evenodd" clip-rule="evenodd" d="M96.53 51.7908C97.919 50.2195 99.8458 49.4269 102.304 49.4269H102.696C105.154 49.4269 107.081 50.2126 108.47 51.7908C108.797 52.1597 109.081 52.5627 109.328 53H115C114.389 51.299 113.444 49.8232 112.164 48.5798C109.699 46.1956 106.478 45 102.5 45C98.5224 45 95.301 46.1956 92.836 48.5798C91.5562 49.8232 90.6182 51.299 90 53H95.6719C95.9264 52.5696 96.2101 52.1597 96.53 51.7908" fill="black"/>
</g>
</svg>
