<svg width="80" height="80" viewBox="0 0 80 80" fill="none" xmlns="http://www.w3.org/2000/svg">
<g clip-path="url(#clip0_0_1859)">
<circle cx="40" cy="40" r="40" fill="#F5F5F5"/>
<path d="M26.5188 35H28.2788V30.36H31.2868C33.4468 30.36 35.0308 29.368 35.0308 26.968C35.0308 24.568 33.4468 23.56 31.2868 23.56H26.5188V35ZM28.2788 28.84V25.08H31.2068C32.5348 25.08 33.2068 25.672 33.2068 26.968C33.2068 28.248 32.5348 28.84 31.2068 28.84H28.2788ZM36.2316 35H37.7996V23.56H36.2316V35ZM41.8157 35.224C43.1437 35.224 44.0717 34.696 44.5997 33.848H44.6317C44.7277 34.776 45.1437 35.08 45.9277 35.08C46.1837 35.08 46.4557 35.048 46.7277 34.984V34.024C46.6317 34.04 46.5837 34.04 46.5357 34.04C46.2317 34.04 46.1517 33.736 46.1517 33.144V29.4C46.1517 27.288 44.8077 26.584 43.1277 26.584C40.6317 26.584 39.6077 27.816 39.5277 29.384H41.1277C41.2077 28.296 41.6397 27.848 43.0637 27.848C44.2637 27.848 44.6157 28.344 44.6157 28.936C44.6157 29.736 43.8317 29.896 42.5517 30.136C40.5197 30.52 39.1437 31.064 39.1437 32.888C39.1437 34.28 40.1837 35.224 41.8157 35.224ZM40.7757 32.776C40.7757 31.928 41.3837 31.528 42.8237 31.24C43.6557 31.064 44.3597 30.888 44.6157 30.648V31.816C44.6157 33.24 43.5757 33.96 42.1677 33.96C41.1917 33.96 40.7757 33.544 40.7757 32.776ZM48.8657 37.864C50.1297 37.864 50.9137 37.208 51.6977 35.192L54.9297 26.84H53.2817L51.0417 33.08H51.0097L48.6257 26.84H46.9137L50.2097 34.92C49.8897 36.2 49.1537 36.52 48.5297 36.52C48.2737 36.52 48.1297 36.504 47.8577 36.472V37.752C48.2737 37.832 48.5137 37.864 48.8657 37.864ZM23.9331 54H25.8371L29.7731 42.56H27.9171L24.8931 52.144H24.8771L21.8371 42.56H19.9011L23.9331 54ZM30.7628 54H32.3308V45.84H30.7628V54ZM30.6668 44.384H32.4428V42.688H30.6668V44.384ZM37.3389 54.224C38.6189 54.224 39.4029 53.616 39.8509 53.04H39.8829V54H41.4509V42.56H39.8829V46.832H39.8509C39.4029 46.192 38.6189 45.6 37.3389 45.6C35.2589 45.6 33.6749 47.232 33.6749 49.92C33.6749 52.608 35.2589 54.224 37.3389 54.224ZM35.3069 49.92C35.3069 48.32 36.0589 46.912 37.5949 46.912C39.0029 46.912 39.8669 48.064 39.8669 49.92C39.8669 51.76 39.0029 52.928 37.5949 52.928C36.0589 52.928 35.3069 51.52 35.3069 49.92ZM46.8319 54.24C48.9759 54.24 50.1759 53.056 50.6079 51.488H49.0079C48.8639 52.032 48.3039 52.96 46.8639 52.96C45.2479 52.96 44.4479 51.696 44.4159 50.336H50.6879C50.7039 50.208 50.7039 49.968 50.7039 49.744C50.7039 47.216 49.3119 45.584 46.8319 45.584C44.3359 45.584 42.7999 47.344 42.7999 49.904C42.7999 52.4 44.2399 54.24 46.8319 54.24ZM44.4159 49.104C44.5119 47.76 45.4719 46.864 46.7839 46.864C48.1759 46.864 49.0719 47.824 49.0719 49.104H44.4159ZM55.6764 54.24C58.2204 54.24 59.7564 52.464 59.7564 49.904C59.7564 47.36 58.2204 45.584 55.6924 45.584C53.1324 45.584 51.5964 47.376 51.5964 49.92C51.5964 52.48 53.1324 54.24 55.6764 54.24ZM53.2284 49.92C53.2284 48.208 53.9964 46.896 55.6924 46.896C57.3564 46.896 58.1244 48.208 58.1244 49.92C58.1244 51.616 57.3564 52.944 55.6924 52.944C53.9964 52.944 53.2284 51.616 53.2284 49.92Z" fill="#1E001E"/>
</g>
<defs>
<clipPath id="clip0_0_1859">
<rect width="80" height="80" fill="white"/>
</clipPath>
</defs>
</svg>
