<svg width="59" height="65" viewBox="0 0 59 65" fill="none" xmlns="http://www.w3.org/2000/svg">
<path fill-rule="evenodd" clip-rule="evenodd" d="M2 13.273L9.081 1H51.565L58.646 13.273H2Z" fill="black"/>
<path fill-rule="evenodd" clip-rule="evenodd" d="M2 13.273L9.081 1H51.565L58.646 13.273H2Z" stroke="#C8F0F0" stroke-width="1.285"/>
<path fill-rule="evenodd" clip-rule="evenodd" d="M30.323 62.3664L2 13.2734H58.646L30.323 62.3664Z" fill="black"/>
<path fill-rule="evenodd" clip-rule="evenodd" d="M30.323 62.3664L2 13.2734H58.646L30.323 62.3664Z" stroke="#C8F0F0" stroke-width="1.285"/>
<path fill-rule="evenodd" clip-rule="evenodd" d="M16.1621 13.273L19.7021 1H40.9441L44.4851 13.273H16.1621Z" fill="black"/>
<path fill-rule="evenodd" clip-rule="evenodd" d="M16.1621 13.273L19.7021 1H40.9441L44.4851 13.273H16.1621Z" stroke="#C8F0F0" stroke-width="1.285"/>
<path fill-rule="evenodd" clip-rule="evenodd" d="M30.3231 62.3664L16.1621 13.2734H44.4851L30.3231 62.3664Z" fill="black"/>
<path fill-rule="evenodd" clip-rule="evenodd" d="M30.3231 62.3664L16.1621 13.2734H44.4851L30.3231 62.3664Z" stroke="#C8F0F0" stroke-width="1.285"/>
</svg>
