<svg width="1088" height="335" viewBox="0 0 1088 335" fill="none" xmlns="http://www.w3.org/2000/svg">
<path fill-rule="evenodd" clip-rule="evenodd" d="M215.912 280.197L222.993 267.924H265.477L272.558 280.197H215.912Z" fill="black"/>
<path fill-rule="evenodd" clip-rule="evenodd" d="M215.912 280.197L222.993 267.924H265.477L272.558 280.197H215.912Z" stroke="#C8F0F0" stroke-width="1.285"/>
<path fill-rule="evenodd" clip-rule="evenodd" d="M244.235 329.29L215.912 280.197H272.558L244.235 329.29Z" fill="black"/>
<path fill-rule="evenodd" clip-rule="evenodd" d="M244.235 329.29L215.912 280.197H272.558L244.235 329.29Z" stroke="#C8F0F0" stroke-width="1.285"/>
<path fill-rule="evenodd" clip-rule="evenodd" d="M230.074 280.197L233.614 267.924H254.856L258.397 280.197H230.074Z" fill="black"/>
<path fill-rule="evenodd" clip-rule="evenodd" d="M230.074 280.197L233.614 267.924H254.856L258.397 280.197H230.074Z" stroke="#C8F0F0" stroke-width="1.285"/>
<path fill-rule="evenodd" clip-rule="evenodd" d="M244.235 329.29L230.074 280.197H258.397L244.235 329.29Z" fill="black"/>
<path fill-rule="evenodd" clip-rule="evenodd" d="M244.235 329.29L230.074 280.197H258.397L244.235 329.29Z" stroke="#C8F0F0" stroke-width="1.285"/>
</svg>
