<?xml version="1.0" encoding="utf-8"?>
<!-- Generator: Adobe Illustrator 27.3.1, SVG Export Plug-In . SVG Version: 6.00 Build 0)  -->
<svg version="1.1" id="Layer_1" xmlns="http://www.w3.org/2000/svg" xmlns:xlink="http://www.w3.org/1999/xlink" x="0px" y="0px"
	 viewBox="0 0 3840 1080" style="enable-background:new 0 0 3840 1080;" xml:space="preserve">
<style type="text/css">
	.st0{fill:none;stroke:#C8F0F0;stroke-width:5.5543;stroke-linecap:round;stroke-linejoin:round;stroke-miterlimit:10;}
	.st1{stroke:#C8F0F0;stroke-width:5.5543;stroke-linecap:round;stroke-linejoin:round;stroke-miterlimit:10;}
</style>
<g>
	<g>
		<g>
			<g>
				<path d="M828.72,504.78l-176.15,15.14c-12.33,1.06-23.22-7.99-24.43-20.31v0c-1.21-12.32,7.7-23.32,20-24.68l175.71-19.52
					L828.72,504.78z"/>
				<path class="st0" d="M828.72,504.78l-176.15,15.14c-12.33,1.06-23.22-7.99-24.43-20.31v0c-1.21-12.32,7.7-23.32,20-24.68
					l175.71-19.52L828.72,504.78z"/>
			</g>
			<g>
				<path d="M845.23,506.6l-182.41,72.91c-12.77,5.1-27.27-1.01-32.53-13.71v0c-5.26-12.7,0.67-27.28,13.31-32.7l180.54-77.43
					L845.23,506.6z"/>
				<path class="st0" d="M845.23,506.6l-182.41,72.91c-12.77,5.1-27.27-1.01-32.53-13.71v0c-5.26-12.7,0.67-27.28,13.31-32.7
					l180.54-77.43L845.23,506.6z"/>
			</g>
			<path class="st1" d="M868.06,499.61l-156.25,152.4c-10.94,10.67-28.42,10.56-39.22-0.24v0c-10.8-10.8-10.91-28.29-0.24-39.22
				l152.4-156.25L868.06,499.61z"/>
			<g>
				<path d="M868.06,499.61l-156.25,152.4c-10.94,10.67-28.42,10.56-39.22-0.24v0c-10.8-10.8-10.91-28.29-0.24-39.22l152.4-156.25
					l0,0c51.82-51.82,122.11-80.94,195.4-80.94H3209.3l2.04,212.8l-2261.3-70.73"/>
				<path class="st0" d="M868.06,499.61l-156.25,152.4c-10.94,10.67-28.42,10.56-39.22-0.24v0c-10.8-10.8-10.91-28.29-0.24-39.22
					l152.4-156.25l0,0c51.82-51.82,122.11-80.94,195.4-80.94H3209.3l2.04,212.8l-2261.3-70.73"/>
			</g>
			<g>
				<path d="M837.96,486.4l-55.33,82.87c-8.25,12.35-11.07,27.55-7.81,42.04l15.82,70.32c3.36,14.96,18.05,24.51,33.08,21.51h0
					c15.04-2.99,24.95-17.43,22.33-32.54l-11.83-68.35l44.1-66c6.25-9.36,17.97-13.41,28.67-9.92h0
					c12.92,4.22,20.13,17.95,16.28,30.99L892.05,662.8c-4.86,16.02,4.19,32.96,20.21,37.82l0,0c16.02,4.86,32.96-4.19,37.82-20.21
					l15.27-51.6l0,0l3.12-3.72c29.89-35.63,52.13-77.03,65.32-121.62l0,0"/>
				<path class="st0" d="M837.96,486.4l-55.33,82.87c-8.25,12.35-11.07,27.55-7.81,42.04l15.82,70.32
					c3.36,14.96,18.05,24.51,33.08,21.51h0c15.04-2.99,24.95-17.43,22.33-32.54l-11.83-68.35l44.1-66
					c6.25-9.36,17.97-13.41,28.67-9.92h0c12.92,4.22,20.13,17.95,16.28,30.99L892.05,662.8c-4.86,16.02,4.19,32.96,20.21,37.82l0,0
					c16.02,4.86,32.96-4.19,37.82-20.21l15.27-51.6l0,0l3.12-3.72c29.89-35.63,52.13-77.03,65.32-121.62l0,0"/>
			</g>
		</g>
	</g>
</g>
</svg>
