<svg width="2590" height="333" viewBox="0 0 2590 333" fill="none" xmlns="http://www.w3.org/2000/svg">
<path d="M203.701 132.8L27.5006 147.9C15.2006 149 4.30057 139.9 3.10057 127.6C1.90057 115.3 10.8006 104.3 23.1006 102.9L198.801 83.4004L203.701 132.8Z" fill="black"/>
<path d="M203.701 132.8L27.5006 147.9C15.2006 149 4.30057 139.9 3.10057 127.6C1.90057 115.3 10.8006 104.3 23.1006 102.9L198.801 83.4004L203.701 132.8Z" stroke="#C8F0F0" stroke-width="5.5543" stroke-miterlimit="10" stroke-linecap="round" stroke-linejoin="round"/>
<path d="M220.201 134.599L37.801 207.499C25.001 212.599 10.501 206.499 5.30102 193.799C0.00101733 181.099 6.00101 166.499 18.601 161.099L199.101 83.6992L220.201 134.599Z" fill="black"/>
<path d="M220.201 134.599L37.801 207.499C25.001 212.599 10.501 206.499 5.30102 193.799C0.00101733 181.099 6.00101 166.499 18.601 161.099L199.101 83.6992L220.201 134.599Z" stroke="#C8F0F0" stroke-width="5.5543" stroke-miterlimit="10" stroke-linecap="round" stroke-linejoin="round"/>
<path d="M243.1 127.6L86.8004 280C75.9004 290.7 58.4004 290.6 47.6004 279.8C36.8004 269 36.7004 251.5 47.4004 240.6L199.8 84.4004L243.1 127.6Z" fill="black" stroke="#C8F0F0" stroke-width="5.5543" stroke-miterlimit="10" stroke-linecap="round" stroke-linejoin="round"/>
<path d="M243.1 127.6L86.8004 280C75.9004 290.7 58.4004 290.6 47.6004 279.8C36.8004 269 36.7004 251.5 47.4004 240.6L199.8 84.4C251.6 32.6 321.9 3.5 395.2 3.5H2584.3L2586.3 216.3L325 145.4" fill="black"/>
<path d="M243.1 127.6L86.8004 280C75.9004 290.7 58.4004 290.6 47.6004 279.8C36.8004 269 36.7004 251.5 47.4004 240.6L199.8 84.4C251.6 32.6 321.9 3.5 395.2 3.5H2584.3L2586.3 216.3L325 145.4" stroke="#C8F0F0" stroke-width="5.5543" stroke-miterlimit="10" stroke-linecap="round" stroke-linejoin="round"/>
<path d="M219.4 110L154.7 185.8C145.1 197.1 140.5 211.9 142 226.6L140.8 291.4C140.5 306.7 152.5 319.5 167.8 320.2C183.1 320.9 196.2 309.2 197.3 293.9L202.2 224.6L253.5 164.2C259.7 154.8 271.5 150.8 282.2 154.3C295.1 158.5 302.3 172.3 298.5 185.3L267 290.8C262.1 306.8 271.2 323.8 287.2 328.6C303.2 333.5 320.2 324.4 325 308.4L340.3 256.8L343.4 253.1C373.3 217.5 395.5 176.1 408.7 131.5" fill="black"/>
<path d="M219.401 110L154.701 185.8C145.101 197.1 142.501 204.5 142.201 219.3L140.701 291.4C140.401 306.7 152.401 319.5 167.701 320.2C183.001 320.9 196.101 309.2 197.201 293.9L202.101 224.7L253.401 164.2C259.601 154.8 271.401 150.8 282.101 154.3C295.001 158.5 302.201 172.3 298.401 185.3L267.001 290.8C262.101 306.8 271.201 323.8 287.201 328.6C303.201 333.5 320.201 324.4 325.001 308.4L340.301 256.8L343.401 253.1C373.301 217.5 395.501 176.1 408.701 131.5" stroke="#C8F0F0" stroke-width="5.5543" stroke-miterlimit="10" stroke-linecap="round" stroke-linejoin="round"/>
</svg>
