<svg width="1088" height="335" viewBox="0 0 1088 335" fill="none" xmlns="http://www.w3.org/2000/svg">
<path fill-rule="evenodd" clip-rule="evenodd" d="M203.689 132.422L27.5435 147.558C15.2125 148.617 4.32345 139.566 3.11045 127.25C1.89745 114.934 10.8125 103.931 23.1125 102.565L198.826 83.0459L203.689 132.422Z" fill="black"/>
<path fill-rule="evenodd" clip-rule="evenodd" d="M203.689 132.422L27.5435 147.558C15.2125 148.617 4.32345 139.566 3.11045 127.25C1.89745 114.934 10.8125 103.931 23.1125 102.565L198.826 83.0459L203.689 132.422Z" stroke="#C8F0F0" stroke-width="5.554" stroke-linecap="round" stroke-linejoin="round"/>
<path fill-rule="evenodd" clip-rule="evenodd" d="M220.195 134.249L37.7871 207.156C25.0181 212.26 10.5201 206.148 5.25814 193.444C-0.00386381 180.74 5.92614 166.166 18.5631 160.746L199.098 83.3174L220.195 134.249Z" fill="black"/>
<path fill-rule="evenodd" clip-rule="evenodd" d="M220.195 134.249L37.7871 207.156C25.0181 212.26 10.5201 206.148 5.25814 193.444C-0.00386369 180.74 5.92614 166.166 18.5631 160.746L199.098 83.3174L220.195 134.249Z" stroke="#C8F0F0" stroke-width="5.554" stroke-linecap="round" stroke-linejoin="round"/>
<path fill-rule="evenodd" clip-rule="evenodd" d="M243.03 127.25L86.7826 279.652C75.8446 290.32 58.3626 290.211 47.5586 279.408V279.407C36.7566 268.604 36.6466 251.122 47.3146 240.185L199.717 83.9365L243.03 127.25Z" fill="black"/>
<path fill-rule="evenodd" clip-rule="evenodd" d="M243.03 127.25L86.7826 279.652C75.8446 290.32 58.3626 290.211 47.5586 279.408V279.407C36.7566 268.604 36.6466 251.122 47.3146 240.185L199.717 83.9365L243.03 127.25Z" stroke="#C8F0F0" stroke-width="5.554" stroke-linecap="round" stroke-linejoin="round"/>
<path fill-rule="evenodd" clip-rule="evenodd" d="M243.03 127.25L86.7826 279.652C75.8446 290.32 58.3626 290.211 47.5586 279.408V279.407C36.7566 268.604 36.6466 251.122 47.3146 240.185L199.717 83.937C251.541 32.114 321.828 3 395.116 3H1693.76V185.759L325.002 145.071" fill="black"/>
<path d="M243.03 127.25L86.7826 279.652C75.8446 290.32 58.3626 290.211 47.5586 279.408V279.407C36.7566 268.604 36.6466 251.122 47.3146 240.185L199.717 83.937C251.541 32.114 321.828 3 395.116 3H1693.76V185.759L325.002 145.071" stroke="#C8F0F0" stroke-width="5.554" stroke-linecap="round" stroke-linejoin="round"/>
<path fill-rule="evenodd" clip-rule="evenodd" d="M212.924 114.044L157.592 196.909C149.343 209.264 146.519 224.46 149.778 238.954L165.597 309.274C168.962 324.233 183.643 333.78 198.681 330.789C213.72 327.797 223.629 313.359 221.013 298.251L209.18 229.902L253.279 163.902C259.532 154.544 271.25 150.49 281.949 153.985C294.868 158.206 302.083 171.94 298.227 184.972L267.022 290.44C262.16 306.464 271.21 323.396 287.235 328.256C303.259 333.118 320.191 324.067 325.051 308.043L340.32 256.44L343.439 252.723C373.328 217.097 395.564 175.697 408.758 131.104" fill="black"/>
<path d="M212.924 114.044L157.592 196.909C149.343 209.264 146.519 224.46 149.778 238.954L165.597 309.274C168.962 324.233 183.643 333.78 198.681 330.789C213.72 327.797 223.629 313.359 221.013 298.251L209.18 229.902L253.279 163.902C259.532 154.544 271.25 150.49 281.949 153.985C294.868 158.206 302.083 171.94 298.227 184.972L267.022 290.44C262.16 306.464 271.21 323.396 287.235 328.256C303.259 333.118 320.191 324.067 325.051 308.043L340.32 256.44L343.439 252.723C373.328 217.097 395.564 175.697 408.758 131.104" stroke="#C8F0F0" stroke-width="5.554" stroke-linecap="round" stroke-linejoin="round"/>
<path fill-rule="evenodd" clip-rule="evenodd" d="M215.912 280.197L222.993 267.924H265.477L272.558 280.197H215.912Z" fill="black"/>
<path fill-rule="evenodd" clip-rule="evenodd" d="M215.912 280.197L222.993 267.924H265.477L272.558 280.197H215.912Z" stroke="#C8F0F0" stroke-width="1.285"/>
<path fill-rule="evenodd" clip-rule="evenodd" d="M244.235 329.29L215.912 280.197H272.558L244.235 329.29Z" fill="black"/>
<path fill-rule="evenodd" clip-rule="evenodd" d="M244.235 329.29L215.912 280.197H272.558L244.235 329.29Z" stroke="#C8F0F0" stroke-width="1.285"/>
<path fill-rule="evenodd" clip-rule="evenodd" d="M230.074 280.197L233.614 267.924H254.856L258.397 280.197H230.074Z" fill="black"/>
<path fill-rule="evenodd" clip-rule="evenodd" d="M230.074 280.197L233.614 267.924H254.856L258.397 280.197H230.074Z" stroke="#C8F0F0" stroke-width="1.285"/>
<path fill-rule="evenodd" clip-rule="evenodd" d="M244.235 329.29L230.074 280.197H258.397L244.235 329.29Z" fill="black"/>
<path fill-rule="evenodd" clip-rule="evenodd" d="M244.235 329.29L230.074 280.197H258.397L244.235 329.29Z" stroke="#C8F0F0" stroke-width="1.285"/>
</svg>
