<svg width="2590" height="335" viewBox="0 0 2590 335" fill="none" xmlns="http://www.w3.org/2000/svg">
<path d="M203.701 132.8L27.5006 147.9C15.2006 149 4.30057 139.9 3.10057 127.6C1.90057 115.3 10.8006 104.3 23.1006 102.9L198.801 83.4004L203.701 132.8Z" fill="black"/>
<path d="M203.701 132.8L27.5006 147.9C15.2006 149 4.30057 139.9 3.10057 127.6C1.90057 115.3 10.8006 104.3 23.1006 102.9L198.801 83.4004L203.701 132.8Z" stroke="#C8F0F0" stroke-width="5.5543" stroke-miterlimit="10" stroke-linecap="round" stroke-linejoin="round"/>
<path d="M220.201 134.599L37.801 207.499C25.001 212.599 10.501 206.499 5.30102 193.799C0.00101733 181.099 6.00101 166.499 18.601 161.099L199.101 83.6992L220.201 134.599Z" fill="black"/>
<path d="M220.201 134.599L37.801 207.499C25.001 212.599 10.501 206.499 5.30102 193.799C0.00101733 181.099 6.00101 166.499 18.601 161.099L199.101 83.6992L220.201 134.599Z" stroke="#C8F0F0" stroke-width="5.5543" stroke-miterlimit="10" stroke-linecap="round" stroke-linejoin="round"/>
<path d="M243.1 127.6L86.8004 280C75.9004 290.7 58.4004 290.6 47.6004 279.8C36.8004 269 36.7004 251.5 47.4004 240.6L199.8 84.4004L243.1 127.6Z" fill="black" stroke="#C8F0F0" stroke-width="5.5543" stroke-miterlimit="10" stroke-linecap="round" stroke-linejoin="round"/>
<path d="M243.1 127.6L86.8004 280C75.9004 290.7 58.4004 290.6 47.6004 279.8C36.8004 269 36.7004 251.5 47.4004 240.6L199.8 84.4C251.6 32.6 321.9 3.5 395.2 3.5H2584.3L2586.3 216.3L325 145.4" fill="black"/>
<path d="M243.1 127.6L86.8004 280C75.9004 290.7 58.4004 290.6 47.6004 279.8C36.8004 269 36.7004 251.5 47.4004 240.6L199.8 84.4C251.6 32.6 321.9 3.5 395.2 3.5H2584.3L2586.3 216.3L325 145.4" stroke="#C8F0F0" stroke-width="5.5543" stroke-miterlimit="10" stroke-linecap="round" stroke-linejoin="round"/>
<path d="M213.001 114.4L157.701 197.3C149.501 209.6 146.601 224.8 149.901 239.3L165.701 309.6C169.101 324.6 183.701 334.1 198.801 331.1C213.801 328.1 223.801 313.7 221.101 298.6L209.301 230.3L253.401 164.3C259.601 154.9 271.401 150.9 282.101 154.4C295.001 158.6 302.201 172.4 298.401 185.4L267.001 290.8C262.101 306.8 271.201 323.8 287.201 328.6C303.201 333.5 320.201 324.4 325.001 308.4L340.301 256.8L343.401 253.1C373.301 217.5 395.501 176.1 408.701 131.5" fill="black"/>
<path d="M213.001 114.4L157.701 197.3C149.501 209.6 146.601 224.8 149.901 239.3L165.701 309.6C169.101 324.6 183.701 334.1 198.801 331.1C213.801 328.1 223.801 313.7 221.101 298.6L209.301 230.3L253.401 164.3C259.601 154.9 271.401 150.9 282.101 154.4C295.001 158.6 302.201 172.4 298.401 185.4L267.001 290.8C262.101 306.8 271.201 323.8 287.201 328.6C303.201 333.5 320.201 324.4 325.001 308.4L340.301 256.8L343.401 253.1C373.301 217.5 395.501 176.1 408.701 131.5" stroke="#C8F0F0" stroke-width="5.5543" stroke-miterlimit="10" stroke-linecap="round" stroke-linejoin="round"/>
<path d="M215.9 280.501L223 268.301H265.5L272.6 280.501H215.9Z" fill="#FF644B" stroke="#C8F0F0" stroke-width="1.2853" stroke-miterlimit="10"/>
<path d="M244.3 329.7L215.9 280.5H272.6L244.3 329.7Z" fill="#FF644B" stroke="#C8F0F0" stroke-width="1.2853" stroke-miterlimit="10"/>
<path d="M230.1 280.501L233.6 268.301H254.9L258.4 280.501H230.1Z" fill="#FF644B" stroke="#C8F0F0" stroke-width="1.2853" stroke-miterlimit="10"/>
<path d="M244.3 329.7L230.1 280.5H258.4L244.3 329.7Z" fill="#FF644B" stroke="#C8F0F0" stroke-width="1.2853" stroke-miterlimit="10"/>
</svg>
