<svg width="50" height="50" viewBox="0 0 50 50" fill="none" xmlns="http://www.w3.org/2000/svg">
<path d="M30.5004 13.5996H19.5004C18.0004 13.5996 16.6004 14.1996 15.5004 15.1996C14.4004 16.2996 13.9004 17.6996 13.9004 19.1996V30.8996C13.9004 32.3996 14.5004 33.7996 15.5004 34.8996C16.6004 35.9996 18.0004 36.4996 19.5004 36.4996H30.4004C31.9004 36.4996 33.3004 35.8996 34.4004 34.8996C35.5004 33.8996 36.0004 32.3996 36.0004 30.8996V19.1996C36.0004 17.6996 35.4004 16.2996 34.4004 15.1996C33.4004 14.1996 32.0004 13.5996 30.5004 13.5996ZM25.0004 32.0996C21.0004 32.0996 17.8004 28.8996 17.8004 24.8996C17.8004 20.8996 21.0004 17.6996 25.0004 17.6996C29.0004 17.6996 32.2004 20.8996 32.2004 24.8996C32.2004 28.8996 29.0004 32.0996 25.0004 32.0996ZM32.4004 19.2996C31.5004 19.2996 30.7004 18.4996 30.7004 17.5996C30.7004 16.6996 31.5004 15.8996 32.4004 15.8996C33.3004 15.8996 34.1004 16.6996 34.1004 17.5996C34.1004 18.4996 33.3004 19.2996 32.4004 19.2996Z" fill="#1F0F1F"/>
<path d="M25.0008 29.5992C27.5965 29.5992 29.7008 27.495 29.7008 24.8992C29.7008 22.3035 27.5965 20.1992 25.0008 20.1992C22.405 20.1992 20.3008 22.3035 20.3008 24.8992C20.3008 27.495 22.405 29.5992 25.0008 29.5992Z" fill="#1F0F1F"/>
<path d="M25 0C11.2 0 0 11.2 0 25C0 38.8 11.2 50 25 50C38.8 50 50 38.8 50 25C50 11.2 38.8 0 25 0ZM38.1 30.8C38.1 35 34.7 38.4 30.5 38.4H19.5C15.3 38.4 11.9 35 11.9 30.8V19.2C11.9 15 15.3 11.6 19.5 11.6H30.4C34.6 11.6 38 15 38 19.2V30.8H38.1Z" fill="#1F0F1F"/>
</svg>
