<svg width="171" height="128" viewBox="0 0 171 128" fill="none" xmlns="http://www.w3.org/2000/svg">
<path fill-rule="evenodd" clip-rule="evenodd" d="M134.416 66.6298C134.416 72.5188 139.189 77.2928 145.079 77.2928C150.968 77.2928 155.742 72.5188 155.742 66.6298C155.742 60.7408 150.968 55.9668 145.079 55.9668C139.189 55.9668 134.416 60.7408 134.416 66.6298Z" fill="#1E001E"/>
<path fill-rule="evenodd" clip-rule="evenodd" d="M147.504 66.6298C147.504 72.5188 152.277 77.2928 158.167 77.2928C164.056 77.2928 168.83 72.5188 168.83 66.6298C168.83 60.7408 164.056 55.9668 158.167 55.9668C152.277 55.9668 147.504 60.7408 147.504 66.6298Z" fill="#1E001E"/>
<mask id="mask0_0_249" style="mask-type:luminance" maskUnits="userSpaceOnUse" x="0" y="0" width="171" height="128">
<path fill-rule="evenodd" clip-rule="evenodd" d="M0 0H170.699V127.911H0V0Z" fill="white"/>
</mask>
<g mask="url(#mask0_0_249)">
<path fill-rule="evenodd" clip-rule="evenodd" d="M127.758 83.896C114.979 83.896 103.829 76.949 97.858 66.63C103.829 56.312 114.979 49.365 127.758 49.365C140.537 49.365 151.687 56.312 157.658 66.63C151.687 76.949 142.092 83.896 127.758 83.896ZM42.432 83.896C29.653 83.896 18.502 76.949 12.531 66.63C18.502 56.312 29.653 49.365 42.432 49.365C55.21 49.365 66.361 56.312 72.332 66.63C66.361 76.949 56.765 83.896 42.432 83.896ZM0 0V73.314C0 106.296 13.149 127.911 47.02 127.911C70.863 127.911 82.005 113.65 84.904 96.935H85.35H85.795C88.694 113.65 99.834 127.911 123.68 127.911C157.551 127.911 170.699 106.296 170.699 73.314V0H0Z" fill="#1E001E"/>
</g>
<path fill-rule="evenodd" clip-rule="evenodd" d="M49.089 66.6298C49.089 72.5188 53.863 77.2928 59.752 77.2928C65.642 77.2928 70.416 72.5188 70.416 66.6298C70.416 60.7408 65.642 55.9668 59.752 55.9668C53.863 55.9668 49.089 60.7408 49.089 66.6298Z" fill="#1E001E"/>
<path fill-rule="evenodd" clip-rule="evenodd" d="M62.1779 66.6298C62.1779 72.5188 66.9509 77.2928 72.8409 77.2928C78.7299 77.2928 83.5039 72.5188 83.5039 66.6298C83.5039 60.7408 78.7299 55.9668 72.8409 55.9668C66.9509 55.9668 62.1779 60.7408 62.1779 66.6298Z" fill="#1E001E"/>
</svg>
