<svg width="51" height="51" viewBox="0 0 51 51" fill="none" xmlns="http://www.w3.org/2000/svg">
<path d="M25.6992 0.900391C11.8992 0.900391 0.699219 12.1004 0.699219 25.9004C0.699219 39.7004 11.8992 50.9004 25.6992 50.9004C39.4992 50.9004 50.6992 39.7004 50.6992 25.9004C50.6992 12.1004 39.4992 0.900391 25.6992 0.900391ZM19.9992 34.2004H15.6992V20.5004H19.9992V34.2004ZM17.8992 18.6004C16.4992 18.6004 15.3992 17.5004 15.3992 16.1004C15.3992 14.7004 16.4992 13.6004 17.8992 13.6004C19.2992 13.6004 20.3992 14.7004 20.3992 16.1004C20.3992 17.5004 19.2992 18.6004 17.8992 18.6004ZM35.9992 34.2004H31.6992V27.5004C31.6992 25.9004 31.6992 23.9004 29.4992 23.9004C27.2992 23.9004 26.8992 25.6004 26.8992 27.4004V34.2004H22.5992V20.5004H26.6992V22.4004H26.7992C27.3992 21.3004 28.7992 20.2004 30.7992 20.2004C35.0992 20.2004 35.8992 23.0004 35.8992 26.7004V34.2004H35.9992Z" fill="#1F0F1F"/>
</svg>
