<svg width="207" height="38" viewBox="0 0 207 38" fill="none" xmlns="http://www.w3.org/2000/svg">
<path fill-rule="evenodd" clip-rule="evenodd" d="M69.2602 26.1311C69.2602 28.9941 67.4642 31.6141 64.3592 31.6141C62.3692 31.6141 61.1562 30.7411 61.1562 28.8481C61.1562 27.1021 62.1752 25.8881 65.0382 25.2091C67.0762 24.7241 68.2402 24.4331 69.2602 24.0451V26.1311ZM76.7812 30.4491V20.8421C76.7812 13.2251 73.0442 10.5071 66.3002 10.5071C57.9062 10.5071 54.4122 14.5831 54.1692 19.3391H61.5452C61.7872 16.9121 63.0982 15.7481 65.9602 15.7481C68.1922 15.7481 69.2602 16.6211 69.2602 17.9801C69.2602 20.4541 65.4272 20.8421 62.7092 21.4241C57.4202 22.5411 53.1992 24.5301 53.1992 29.6731C53.1992 34.0891 56.2562 36.9511 61.1092 36.9511C64.6982 36.9511 67.5622 35.3501 69.3082 33.1671H69.4062C69.7932 35.2531 70.9582 36.4181 74.0642 36.4181C75.1792 36.4181 76.7812 36.2721 78.3332 35.9811V32.2941C78.0422 32.3421 77.8972 32.3421 77.7022 32.3421C76.9262 32.3421 76.7812 31.7601 76.7812 30.4491V30.4491Z" fill="#1E001E"/>
<path d="M65.0382 25.2091L65.1536 25.6956L65.154 25.6955L65.0382 25.2091ZM69.2602 24.0451H69.7602V23.3199L69.0824 23.5777L69.2602 24.0451ZM54.1692 19.3391L53.6699 19.3136L53.643 19.8391H54.1692V19.3391ZM61.5452 19.3391V19.8391H61.9978L62.0428 19.3887L61.5452 19.3391ZM62.7092 21.4241L62.8125 21.9133L62.8139 21.913L62.7092 21.4241ZM69.3082 33.1671V32.6671H69.0679L68.9177 32.8548L69.3082 33.1671ZM69.4062 33.1671L69.8978 33.0759L69.822 32.6671H69.4062V33.1671ZM78.3332 35.9811L78.4254 36.4725L78.8332 36.396V35.9811H78.3332ZM78.3332 32.2941H78.8332V31.7049L78.2518 31.8007L78.3332 32.2941ZM68.7602 26.1311C68.7602 28.8113 67.1031 31.1141 64.3592 31.1141V32.1141C67.8253 32.1141 69.7602 29.1768 69.7602 26.1311H68.7602ZM64.3592 31.1141C63.4269 31.1141 62.758 30.9082 62.3294 30.5551C61.9178 30.2159 61.6562 29.6812 61.6562 28.8481H60.6562C60.6562 29.908 61.0011 30.7563 61.6935 31.3268C62.369 31.8835 63.3015 32.1141 64.3592 32.1141V31.1141ZM61.6562 28.8481C61.6562 28.084 61.8738 27.4805 62.3754 26.9837C62.8952 26.4691 63.7641 26.0251 65.1536 25.6956L64.9228 24.7226C63.4494 25.072 62.3773 25.5746 61.6718 26.2732C60.9482 26.9897 60.6562 27.8662 60.6562 28.8481H61.6562ZM65.154 25.6955C67.1845 25.2123 68.3819 24.9142 69.438 24.5124L69.0824 23.5777C68.0986 23.952 66.968 24.2359 64.9225 24.7227L65.154 25.6955ZM68.7602 24.0451V26.1311H69.7602V24.0451H68.7602ZM77.2812 30.4491V20.8421H76.2812V30.4491H77.2812ZM77.2812 20.8421C77.2812 16.9596 76.3285 14.2132 74.4079 12.4499C72.496 10.6947 69.7248 10.0071 66.3002 10.0071V11.0071C69.6197 11.0071 72.0889 11.6784 73.7316 13.1865C75.3654 14.6865 76.2812 17.1075 76.2812 20.8421H77.2812ZM66.3002 10.0071C62.0265 10.0071 58.9287 11.0448 56.8596 12.7541C54.7836 14.4691 53.7975 16.8159 53.6699 19.3136L54.6686 19.3646C54.784 17.1063 55.6663 15.037 57.4965 13.5251C59.3337 12.0073 62.18 11.0071 66.3002 11.0071V10.0071ZM54.1692 19.8391H61.5452V18.8391H54.1692V19.8391ZM62.0428 19.3887C62.1559 18.2535 62.5094 17.5 63.0896 17.0181C63.6788 16.5288 64.5869 16.2481 65.9602 16.2481V15.2481C64.4716 15.2481 63.2931 15.5493 62.4508 16.2488C61.5996 16.9557 61.1765 17.9977 61.0477 19.2895L62.0428 19.3887ZM65.9602 16.2481C67.0225 16.2481 67.7294 16.4577 68.1575 16.762C68.5613 17.049 68.7602 17.4494 68.7602 17.9801H69.7602C69.7602 17.1517 69.4251 16.4362 68.7369 15.9469C68.073 15.475 67.13 15.2481 65.9602 15.2481V16.2481ZM68.7602 17.9801C68.7602 18.8767 68.0936 19.4765 66.8309 19.9425C65.5775 20.405 64.0133 20.6335 62.6045 20.9352L62.8139 21.913C64.1231 21.6327 65.8344 21.3761 67.1771 20.8807C68.5104 20.3886 69.7602 19.5574 69.7602 17.9801H68.7602ZM62.6059 20.9349C59.9432 21.4972 57.4779 22.2915 55.672 23.638C53.8358 25.007 52.6992 26.9354 52.6992 29.6731H53.6992C53.6992 27.2678 54.6731 25.6301 56.2697 24.4397C57.8965 23.2267 60.1862 22.4679 62.8125 21.9133L62.6059 20.9349ZM52.6992 29.6731C52.6992 32.0015 53.5085 33.9609 54.9949 35.3352C56.4772 36.7058 58.5855 37.4511 61.1092 37.4511V36.4511C58.7799 36.4511 56.9332 35.7654 55.6738 34.601C54.4184 33.4402 53.6992 31.7606 53.6992 29.6731H52.6992ZM61.1092 37.4511C64.8537 37.4511 67.8601 35.7782 69.6987 33.4794L68.9177 32.8548C67.2644 34.922 64.5427 36.4511 61.1092 36.4511V37.4511ZM69.3082 33.6671H69.4062V32.6671H69.3082V33.6671ZM68.9146 33.2583C69.1212 34.372 69.5513 35.3193 70.4135 35.9732C71.2647 36.6188 72.459 36.9181 74.0642 36.9181V35.9181C72.5635 35.9181 71.6222 35.6349 71.0177 35.1764C70.4242 34.7263 70.0782 34.0481 69.8978 33.0759L68.9146 33.2583ZM74.0642 36.9181C75.2142 36.9181 76.8473 36.7684 78.4254 36.4725L78.2411 35.4896C76.7152 35.7758 75.1442 35.9181 74.0642 35.9181V36.9181ZM78.8332 35.9811V32.2941H77.8332V35.9811H78.8332ZM78.2518 31.8007C77.9993 31.8424 77.8849 31.8421 77.7022 31.8421V32.8421C77.9095 32.8421 78.0851 32.8418 78.4146 32.7874L78.2518 31.8007ZM77.7022 31.8421C77.5686 31.8421 77.5128 31.8169 77.4918 31.8041C77.4756 31.7942 77.4451 31.7711 77.4099 31.6894C77.3234 31.4885 77.2812 31.1171 77.2812 30.4491H76.2812C76.2812 31.092 76.3115 31.6671 76.4915 32.085C76.5896 32.3127 76.7408 32.517 76.9701 32.6572C77.1946 32.7945 77.4478 32.8421 77.7022 32.8421V31.8421Z" fill="black"/>
<path fill-rule="evenodd" clip-rule="evenodd" d="M97.597 10.5559C93.181 10.5559 90.755 12.6419 89.445 14.9229H89.348V11.3319H81.584V36.1749H89.348V21.8129C89.348 18.3679 91.046 16.8639 94.006 16.8639C96.577 16.8639 97.888 18.1249 97.888 21.8619V36.1749H105.651V19.3869C105.651 13.7099 102.401 10.5559 97.597 10.5559" fill="#1E001E"/>
<path d="M97.597 10.5559C93.181 10.5559 90.755 12.6419 89.445 14.9229H89.348V11.3319H81.584V36.1749H89.348V21.8129C89.348 18.3679 91.046 16.8639 94.006 16.8639C96.577 16.8639 97.888 18.1249 97.888 21.8619V36.1749H105.651V19.3869C105.651 13.7099 102.401 10.5559 97.597 10.5559" stroke="black"/>
<path fill-rule="evenodd" clip-rule="evenodd" d="M121.711 31.1292C118.558 31.1292 116.713 28.6062 116.713 23.7542C116.713 18.9012 118.558 16.3792 121.711 16.3792C124.865 16.3792 126.709 18.9012 126.709 23.7542C126.709 28.6062 124.865 31.1292 121.711 31.1292V31.1292ZM126.855 13.8072H126.757C125.787 12.4972 123.167 10.5562 119.576 10.5562C112.978 10.5562 108.756 15.6022 108.756 23.7542C108.756 31.9052 112.978 36.9512 119.576 36.9512C123.167 36.9512 125.787 35.0102 126.757 33.7002H126.855V36.1752H134.617V1.48315H126.855V13.8072Z" fill="#1E001E"/>
<path d="M126.855 13.8072V14.3072H127.355V13.8072H126.855ZM126.757 13.8072L126.355 14.1047L126.505 14.3072H126.757V13.8072ZM126.757 33.7002V33.2002H126.505L126.355 33.4026L126.757 33.7002ZM126.855 33.7002H127.355V33.2002H126.855V33.7002ZM126.855 36.1752H126.355V36.6752H126.855V36.1752ZM134.617 36.1752V36.6752H135.117V36.1752H134.617ZM134.617 1.48315H135.117V0.983154H134.617V1.48315ZM126.855 1.48315V0.983154H126.355V1.48315H126.855ZM121.711 30.6292C120.288 30.6292 119.197 30.0705 118.441 28.9768C117.666 27.8566 117.213 26.1288 117.213 23.7542H116.213C116.213 26.2315 116.682 28.1912 117.618 29.5455C118.573 30.9263 119.981 31.6292 121.711 31.6292V30.6292ZM117.213 23.7542C117.213 21.379 117.666 19.6512 118.441 18.5311C119.197 17.4376 120.288 16.8792 121.711 16.8792V15.8792C119.981 15.8792 118.573 16.5817 117.618 17.9624C116.682 19.3166 116.213 21.2763 116.213 23.7542H117.213ZM121.711 16.8792C123.134 16.8792 124.225 17.4376 124.981 18.5311C125.756 19.6511 126.209 21.379 126.209 23.7542H127.209C127.209 21.2763 126.74 19.3167 125.804 17.9624C124.849 16.5817 123.441 15.8792 121.711 15.8792V16.8792ZM126.209 23.7542C126.209 26.1288 125.756 27.8567 124.981 28.9768C124.225 30.0705 123.134 30.6292 121.711 30.6292V31.6292C123.441 31.6292 124.849 30.9263 125.804 29.5455C126.74 28.1911 127.209 26.2315 127.209 23.7542H126.209ZM126.855 13.3072H126.757V14.3072H126.855V13.3072ZM127.159 13.5096C126.104 12.0848 123.34 10.0562 119.576 10.0562V11.0562C122.993 11.0562 125.47 12.9095 126.355 14.1047L127.159 13.5096ZM119.576 10.0562C116.139 10.0562 113.288 11.3761 111.306 13.7801C109.332 16.1736 108.256 19.5967 108.256 23.7542H109.256C109.256 19.7596 110.29 16.5837 112.077 14.4162C113.856 12.2592 116.415 11.0562 119.576 11.0562V10.0562ZM108.256 23.7542C108.256 27.9112 109.332 31.334 111.306 33.7274C113.288 36.1312 116.139 37.4512 119.576 37.4512V36.4512C116.415 36.4512 113.856 35.2481 112.077 33.0912C110.29 30.9238 109.256 27.7482 109.256 23.7542H108.256ZM119.576 37.4512C123.34 37.4512 126.104 35.4225 127.159 33.9977L126.355 33.4026C125.47 34.5978 122.993 36.4512 119.576 36.4512V37.4512ZM126.757 34.2002H126.855V33.2002H126.757V34.2002ZM126.355 33.7002V36.1752H127.355V33.7002H126.355ZM126.855 36.6752H134.617V35.6752H126.855V36.6752ZM135.117 36.1752V1.48315H134.117V36.1752H135.117ZM134.617 0.983154H126.855V1.98315H134.617V0.983154ZM126.355 1.48315V13.8072H127.355V1.48315H126.355Z" fill="black"/>
<mask id="mask0_0_2797" style="mask-type:luminance" maskUnits="userSpaceOnUse" x="0" y="0" width="207" height="38">
<path fill-rule="evenodd" clip-rule="evenodd" d="M1 37H205.505V1H1V37Z" fill="white" stroke="white"/>
</mask>
<g mask="url(#mask0_0_2797)">
<path fill-rule="evenodd" clip-rule="evenodd" d="M138.887 8.37303H146.651V1.48303H138.887V8.37303Z" fill="#1E001E" stroke="black"/>
<path fill-rule="evenodd" clip-rule="evenodd" d="M138.887 36.175H146.651V11.332H138.887V36.175Z" fill="#1E001E" stroke="black"/>
<path fill-rule="evenodd" clip-rule="evenodd" d="M162.855 31.1292C159.702 31.1292 157.857 28.6062 157.857 23.7542C157.857 18.9012 159.702 16.3792 162.855 16.3792C166.009 16.3792 167.853 18.9012 167.853 23.7542C167.853 28.6062 166.009 31.1292 162.855 31.1292V31.1292ZM167.999 13.8072H167.901C166.931 12.4972 164.31 10.5562 160.72 10.5562C154.121 10.5562 149.9 15.6022 149.9 23.7542C149.9 31.9052 154.121 36.9512 160.72 36.9512C164.31 36.9512 166.931 35.0102 167.901 33.7002H167.999V36.1752H175.761V1.48315H167.999V13.8072Z" fill="#1E001E"/>
<path d="M167.999 13.8072V14.3072H168.499V13.8072H167.999ZM167.901 13.8072L167.5 14.1047L167.649 14.3072H167.901V13.8072ZM167.901 33.7002V33.2002H167.649L167.5 33.4026L167.901 33.7002ZM167.999 33.7002H168.499V33.2002H167.999V33.7002ZM167.999 36.1752H167.499V36.6752H167.999V36.1752ZM175.761 36.1752V36.6752H176.261V36.1752H175.761ZM175.761 1.48315H176.261V0.983154H175.761V1.48315ZM167.999 1.48315V0.983154H167.499V1.48315H167.999ZM162.855 30.6292C161.432 30.6292 160.341 30.0705 159.585 28.9768C158.811 27.8566 158.357 26.1288 158.357 23.7542H157.357C157.357 26.2315 157.826 28.1912 158.763 29.5455C159.717 30.9263 161.125 31.6292 162.855 31.6292V30.6292ZM158.357 23.7542C158.357 21.379 158.811 19.6512 159.585 18.5311C160.341 17.4376 161.432 16.8792 162.855 16.8792V15.8792C161.125 15.8792 159.717 16.5817 158.763 17.9624C157.826 19.3166 157.357 21.2763 157.357 23.7542H158.357ZM162.855 16.8792C164.279 16.8792 165.37 17.4376 166.126 18.5311C166.9 19.6511 167.353 21.379 167.353 23.7542H168.353C168.353 21.2763 167.885 19.3167 166.948 17.9624C165.994 16.5817 164.586 15.8792 162.855 15.8792V16.8792ZM167.353 23.7542C167.353 26.1288 166.9 27.8567 166.126 28.9768C165.37 30.0705 164.279 30.6292 162.855 30.6292V31.6292C164.586 31.6292 165.994 30.9263 166.948 29.5455C167.885 28.1911 168.353 26.2315 168.353 23.7542H167.353ZM167.999 13.3072H167.901V14.3072H167.999V13.3072ZM168.303 13.5096C167.248 12.0848 164.484 10.0562 160.72 10.0562V11.0562C164.137 11.0562 166.615 12.9096 167.5 14.1047L168.303 13.5096ZM160.72 10.0562C157.283 10.0562 154.432 11.3761 152.45 13.7801C150.477 16.1736 149.4 19.5967 149.4 23.7542H150.4C150.4 19.7596 151.435 16.5837 153.222 14.4162C155 12.2592 157.559 11.0562 160.72 11.0562V10.0562ZM149.4 23.7542C149.4 27.9111 150.477 31.3339 152.45 33.7274C154.432 36.1312 157.283 37.4512 160.72 37.4512V36.4512C157.559 36.4512 155 35.2481 153.222 33.0912C151.435 30.9239 150.4 27.7482 150.4 23.7542H149.4ZM160.72 37.4512C164.484 37.4512 167.248 35.4226 168.303 33.9977L167.5 33.4026C166.615 34.5978 164.137 36.4512 160.72 36.4512V37.4512ZM167.901 34.2002H167.999V33.2002H167.901V34.2002ZM167.499 33.7002V36.1752H168.499V33.7002H167.499ZM167.999 36.6752H175.761V35.6752H167.999V36.6752ZM176.261 36.1752V1.48315H175.261V36.1752H176.261ZM175.761 0.983154H167.999V1.98315H175.761V0.983154ZM167.499 1.48315V13.8072H168.499V1.48315H167.499Z" fill="black"/>
<path fill-rule="evenodd" clip-rule="evenodd" d="M192.26 31.1774C188.767 31.1774 186.825 28.5574 186.825 23.7534C186.825 18.9494 188.767 16.3304 192.26 16.3304C195.705 16.3304 197.646 18.9494 197.646 23.7534C197.646 28.5574 195.705 31.1774 192.26 31.1774M192.309 10.5074C183.963 10.5074 178.965 15.9904 178.965 23.8024C178.965 31.6624 183.963 37.0004 192.163 37.0004C200.509 37.0004 205.506 31.5174 205.506 23.6564C205.506 15.8444 200.509 10.5074 192.309 10.5074" fill="#1E001E"/>
<path d="M192.26 30.6774C190.654 30.6774 189.453 30.084 188.635 28.971C187.801 27.8345 187.325 26.0993 187.325 23.7534H186.325C186.325 26.2116 186.82 28.1884 187.829 29.5629C188.856 30.9609 190.373 31.6774 192.26 31.6774V30.6774ZM187.325 23.7534C187.325 21.4076 187.801 19.6727 188.635 18.5365C189.453 17.4237 190.654 16.8304 192.26 16.8304V15.8304C190.373 15.8304 188.856 16.5467 187.83 17.9444C186.82 19.3187 186.325 21.2953 186.325 23.7534H187.325ZM192.26 16.8304C193.839 16.8304 195.028 17.4218 195.841 18.5352C196.67 19.6719 197.146 21.4077 197.146 23.7534H198.146C198.146 21.2952 197.651 19.3195 196.649 17.9457C195.629 16.5486 194.125 15.8304 192.26 15.8304V16.8304ZM197.146 23.7534C197.146 26.0992 196.67 27.8353 195.841 28.9723C195.028 30.0859 193.839 30.6774 192.26 30.6774V31.6774C194.125 31.6774 195.629 30.959 196.649 29.5616C197.651 28.1876 198.146 26.2117 198.146 23.7534H197.146ZM192.309 10.0074C188.023 10.0074 184.55 11.418 182.149 13.8761C179.75 16.3322 178.465 19.7892 178.465 23.8024H179.465C179.465 20.0037 180.678 16.8132 182.865 14.5748C185.049 12.3384 188.249 11.0074 192.309 11.0074V10.0074ZM178.465 23.8024C178.465 27.8393 179.75 31.2728 182.132 33.6992C184.515 36.1271 187.951 37.5004 192.163 37.5004V36.5004C188.174 36.5004 185.011 35.2048 182.846 32.9987C180.679 30.7911 179.465 27.6256 179.465 23.8024H178.465ZM192.163 37.5004C196.449 37.5004 199.921 36.0899 202.322 33.6252C204.721 31.1627 206.006 27.6934 206.006 23.6564H205.006C205.006 27.4805 203.792 30.6832 201.606 32.9274C199.422 35.1695 196.223 36.5004 192.163 36.5004V37.5004ZM206.006 23.6564C206.006 19.6429 204.72 16.2216 202.339 13.8017C199.956 11.3805 196.52 10.0074 192.309 10.0074V11.0074C196.297 11.0074 199.46 12.3029 201.626 14.5032C203.793 16.7048 205.006 19.858 205.006 23.6564H206.006Z" fill="black"/>
<path fill-rule="evenodd" clip-rule="evenodd" d="M8.201 16.7312C7.667 16.7312 7.167 16.8722 6.733 17.1162C8.414 15.7192 10.57 14.8752 12.927 14.8752C16.518 14.8752 19.652 16.8282 21.331 19.7292C19.652 22.6282 16.955 24.5822 12.927 24.5822C10.57 24.5822 8.414 23.7372 6.733 22.3402C7.167 22.5852 7.667 22.7262 8.201 22.7262C9.856 22.7262 11.198 21.3842 11.198 19.7292C11.198 18.0732 9.856 16.7312 8.201 16.7312V16.7312ZM32.184 16.7312C31.651 16.7312 31.151 16.8722 30.717 17.1162C32.397 15.7192 34.554 14.8752 36.91 14.8752C40.502 14.8752 43.636 16.8282 45.314 19.7292C43.636 22.6282 40.939 24.5822 36.91 24.5822C34.554 24.5822 32.397 23.7372 30.717 22.3402C31.151 22.5852 31.651 22.7262 32.184 22.7262C33.84 22.7262 35.181 21.3842 35.181 19.7292C35.181 18.0732 33.84 16.7312 32.184 16.7312V16.7312ZM1 21.6072C1 30.8772 4.695 36.9532 14.216 36.9532C20.918 36.9532 24.05 32.9442 24.864 28.2472H24.99H25.115C25.93 32.9442 29.061 36.9532 35.763 36.9532C45.284 36.9532 48.98 30.8772 48.98 21.6072V1.00024H1V21.6072Z" fill="#1E001E"/>
<path d="M6.733 17.1162L6.41343 16.7317L6.97804 17.5521L6.733 17.1162ZM21.331 19.7292L21.7637 19.9798L21.9088 19.7293L21.7637 19.4788L21.331 19.7292ZM6.733 22.3402L6.9788 21.9048L6.41343 22.7248L6.733 22.3402ZM30.717 17.1162L30.3973 16.7318L30.962 17.5521L30.717 17.1162ZM45.314 19.7292L45.7467 19.9797L45.8917 19.7293L45.7468 19.4789L45.314 19.7292ZM30.717 22.3402L30.9628 21.9048L30.3973 22.7247L30.717 22.3402ZM24.864 28.2472V27.7472H24.4432L24.3713 28.1619L24.864 28.2472ZM25.115 28.2472L25.6076 28.1618L25.5357 27.7472H25.115V28.2472ZM48.98 1.00024H49.48V0.500244H48.98V1.00024ZM1 1.00024V0.500244H0.5V1.00024H1ZM8.201 16.2312C7.5777 16.2312 6.9937 16.3961 6.48796 16.6804L6.97804 17.5521C7.3403 17.3484 7.7563 17.2312 8.201 17.2312V16.2312ZM7.05257 17.5008C8.64776 16.1751 10.6918 15.3752 12.927 15.3752V14.3752C10.4482 14.3752 8.18024 15.2634 6.41343 16.7317L7.05257 17.5008ZM12.927 15.3752C16.332 15.3752 19.3048 17.2265 20.8983 19.9797L21.7637 19.4788C19.9992 16.43 16.704 14.3752 12.927 14.3752V15.3752ZM20.8983 19.4787C19.298 22.2418 16.7562 24.0822 12.927 24.0822V25.0822C17.1538 25.0822 20.006 23.0147 21.7637 19.9798L20.8983 19.4787ZM12.927 24.0822C10.6919 24.0822 8.64788 23.2815 7.05257 21.9557L6.41343 22.7248C8.18012 24.193 10.4481 25.0822 12.927 25.0822V24.0822ZM6.4872 22.7757C6.99337 23.0614 7.57767 23.2262 8.201 23.2262V22.2262C7.75633 22.2262 7.34063 22.1091 6.9788 21.9048L6.4872 22.7757ZM8.201 23.2262C10.1321 23.2262 11.698 21.6604 11.698 19.7292H10.698C10.698 21.1081 9.57986 22.2262 8.201 22.2262V23.2262ZM11.698 19.7292C11.698 17.7972 10.1323 16.2312 8.201 16.2312V17.2312C9.57975 17.2312 10.698 18.3493 10.698 19.7292H11.698ZM32.184 16.2312C31.5616 16.2312 30.9776 16.3961 30.472 16.6804L30.962 17.5521C31.3244 17.3484 31.7404 17.2312 32.184 17.2312V16.2312ZM31.0367 17.5007C32.6308 16.1751 34.6757 15.3752 36.91 15.3752V14.3752C34.4323 14.3752 32.1632 15.2634 30.3973 16.7318L31.0367 17.5007ZM36.91 15.3752C40.316 15.3752 43.2887 17.2265 44.8812 19.9796L45.7468 19.4789C43.9833 16.43 40.688 14.3752 36.91 14.3752V15.3752ZM44.8813 19.4788C43.282 22.2417 40.7403 24.0822 36.91 24.0822V25.0822C41.1377 25.0822 43.99 23.0147 45.7467 19.9797L44.8813 19.4788ZM36.91 24.0822C34.6759 24.0822 32.6309 23.2815 31.0367 21.9558L30.3973 22.7247C32.1631 24.193 34.4321 25.0822 36.91 25.0822V24.0822ZM30.4712 22.7757C30.9773 23.0614 31.5616 23.2262 32.184 23.2262V22.2262C31.7404 22.2262 31.3247 22.1091 30.9628 21.9048L30.4712 22.7757ZM32.184 23.2262C34.1163 23.2262 35.681 21.6603 35.681 19.7292H34.681C34.681 21.1082 33.5637 22.2262 32.184 22.2262V23.2262ZM35.681 19.7292C35.681 17.7973 34.1164 16.2312 32.184 16.2312V17.2312C33.5636 17.2312 34.681 18.3492 34.681 19.7292H35.681ZM0.5 21.6072C0.5 26.2955 1.43218 30.263 3.64517 33.0663C5.87575 35.8919 9.34165 37.4532 14.216 37.4532V36.4532C9.56935 36.4532 6.42725 34.9766 4.43008 32.4467C2.41532 29.8945 1.5 26.189 1.5 21.6072H0.5ZM14.216 37.4532C17.6724 37.4532 20.2584 36.4165 22.0871 34.7291C23.9094 33.0476 24.9358 30.7608 25.3567 28.3326L24.3713 28.1619C23.9782 30.4307 23.0316 32.4969 21.4089 33.9942C19.7926 35.4855 17.4616 36.4532 14.216 36.4532V37.4532ZM24.864 28.7472H24.99V27.7472H24.864V28.7472ZM24.99 28.7472H25.115V27.7472H24.99V28.7472ZM24.6224 28.3327C25.0437 30.7608 26.0701 33.0475 27.8923 34.7291C29.7209 36.4165 32.3065 37.4532 35.763 37.4532V36.4532C32.5175 36.4532 30.1866 35.4855 28.5705 33.9942C26.9479 32.4969 26.0013 30.4307 25.6076 28.1618L24.6224 28.3327ZM35.763 37.4532C40.6373 37.4532 44.1035 35.8919 46.3343 33.0663C48.5476 30.263 49.48 26.2955 49.48 21.6072H48.48C48.48 26.189 47.5644 29.8945 45.5494 32.4467C43.552 34.9766 40.4097 36.4532 35.763 36.4532V37.4532ZM49.48 21.6072V1.00024H48.48V21.6072H49.48ZM48.98 0.500244H1V1.50024H48.98V0.500244ZM0.5 1.00024V21.6072H1.5V1.00024H0.5Z" fill="black"/>
</g>
</svg>
