<svg width="80" height="80" viewBox="0 0 80 80" fill="none" xmlns="http://www.w3.org/2000/svg">
<g clip-path="url(#clip0_0_2780)">
<circle cx="40" cy="40" r="40" fill="#1E001E"/>
<path d="M23.261 45H25.021V39.864H30.637V45H32.413V33.56H30.637V38.344H25.021V33.56H23.261V45ZM37.8398 45.24C39.9838 45.24 41.1838 44.056 41.6158 42.488H40.0158C39.8718 43.032 39.3118 43.96 37.8718 43.96C36.2558 43.96 35.4557 42.696 35.4238 41.336H41.6958C41.7118 41.208 41.7118 40.968 41.7118 40.744C41.7118 38.216 40.3198 36.584 37.8398 36.584C35.3438 36.584 33.8078 38.344 33.8078 40.904C33.8078 43.4 35.2478 45.24 37.8398 45.24ZM35.4238 40.104C35.5198 38.76 36.4798 37.864 37.7918 37.864C39.1838 37.864 40.0798 38.824 40.0798 40.104H35.4238ZM43.0363 45H44.6043V33.56H43.0363V45ZM46.3644 45H47.9324V33.56H46.3644V45ZM53.3405 45.24C55.8845 45.24 57.4205 43.464 57.4205 40.904C57.4205 38.36 55.8845 36.584 53.3565 36.584C50.7965 36.584 49.2605 38.376 49.2605 40.92C49.2605 43.48 50.7965 45.24 53.3405 45.24ZM50.8925 40.92C50.8925 39.208 51.6605 37.896 53.3565 37.896C55.0205 37.896 55.7885 39.208 55.7885 40.92C55.7885 42.616 55.0205 43.944 53.3565 43.944C51.6605 43.944 50.8925 42.616 50.8925 40.92Z" fill="white"/>
</g>
<defs>
<clipPath id="clip0_0_2780">
<rect width="80" height="80" fill="white"/>
</clipPath>
</defs>
</svg>
