<?xml version="1.0" encoding="utf-8"?>
<!-- Generator: Adobe Illustrator 27.3.1, SVG Export Plug-In . SVG Version: 6.00 Build 0)  -->
<svg version="1.1" id="Layer_1" xmlns="http://www.w3.org/2000/svg" xmlns:xlink="http://www.w3.org/1999/xlink" x="0px" y="0px"
	 viewBox="0 0 660 120" style="enable-background:new 0 0 660 120;" xml:space="preserve">
<style type="text/css">
	.st0{fill:#1E001E;}
	.st1{fill:#F5F5F5;}
</style>
<g>
	<g>
		<path class="st0" d="M3,2.44v65.9c0,29.65,11.82,49.08,42.26,49.08c21.43,0,31.45-12.82,34.05-27.84h0.4h0.4
			c2.61,15.02,12.62,27.84,34.05,27.84c30.45,0,42.26-19.43,42.26-49.08V2.44H3z"/>
		<g>
			<g>
				<path class="st0" d="M169.93,94.13c0-16.45,13.5-22.81,30.41-26.38c8.69-1.86,20.95-3.1,20.95-11.02
					c0-4.34-3.41-7.14-10.55-7.14c-9.15,0-13.34,3.72-14.12,11.48h-23.59c0.78-15.21,11.95-28.24,38.79-28.24
					c21.57,0,33.52,8.69,33.52,33.05v30.72c0,4.19,0.47,6.05,2.95,6.05c0.62,0,1.09,0,2.02-0.15v11.79
					c-4.97,0.93-10.09,1.4-13.65,1.4c-9.93,0-13.65-3.72-14.9-10.4h-0.31c-5.59,6.98-14.74,12.1-26.22,12.1
					C179.71,117.41,169.93,108.25,169.93,94.13z M205.62,100.34c9.93,0,15.67-8.38,15.67-17.53v-6.67
					c-3.26,1.24-6.98,2.17-13.5,3.72c-9.16,2.17-12.41,6.05-12.41,11.64C195.38,97.55,199.26,100.34,205.62,100.34z"/>
				<path class="st0" d="M300.43,53.17c-9.46,0-14.9,4.81-14.9,15.83v45.93h-24.83V35.48h24.83v11.48h0.31
					C290.03,39.67,297.79,33,311.91,33c15.36,0,25.76,10.09,25.76,28.24v53.69h-24.83V69.15C312.84,57.2,308.65,53.17,300.43,53.17z
					"/>
				<path class="st0" d="M347.6,75.2c0-26.07,13.5-42.21,34.6-42.21c11.48,0,19.86,6.21,22.96,10.4h0.31V3.98h24.83v110.94h-24.83
					v-7.91h-0.31c-3.1,4.19-11.48,10.4-22.96,10.4C361.1,117.41,347.6,101.27,347.6,75.2z M389.03,98.79
					c10.09,0,15.98-8.07,15.98-23.59s-5.9-23.59-15.98-23.59c-10.09,0-15.98,8.07-15.98,23.59S378.94,98.79,389.03,98.79z"/>
				<path class="st0" d="M443.96,3.98h24.83v22.03h-24.83V3.98z M443.96,35.48h24.83v79.45h-24.83V35.48z"/>
				<path class="st0" d="M479.18,75.2c0-26.07,13.5-42.21,34.6-42.21c11.48,0,19.86,6.21,22.96,10.4h0.31V3.98h24.83v110.94h-24.83
					v-7.91h-0.31c-3.1,4.19-11.48,10.4-22.96,10.4C492.68,117.41,479.18,101.27,479.18,75.2z M520.61,98.79
					c10.09,0,15.98-8.07,15.98-23.59s-5.9-23.59-15.98-23.59c-10.09,0-15.98,8.07-15.98,23.59S510.52,98.79,520.61,98.79z"/>
				<path class="st0" d="M572.12,75.36c0-24.98,15.98-42.52,42.67-42.52c26.22,0,42.21,17.07,42.21,42.05
					c0,25.14-15.98,42.67-42.67,42.67C588.11,117.56,572.12,100.49,572.12,75.36z M614.64,98.94c11.02,0,17.22-8.38,17.22-23.74
					s-6.21-23.74-17.22-23.74c-11.17,0-17.38,8.38-17.38,23.74S603.47,98.94,614.64,98.94z"/>
			</g>
			<g>
				<g>
					<g>
						<g>
							<g>
								<path class="st1" d="M41.14,46.81c-11.49,0-21.51,6.24-26.88,15.52c5.37,9.28,15.39,15.52,26.88,15.52
									c12.88,0,21.51-6.24,26.88-15.52C62.65,53.05,52.63,46.81,41.14,46.81z"/>
							</g>
						</g>
					</g>
					<circle class="st0" cx="26.03" cy="62.33" r="9.58"/>
				</g>
				<g>
					<circle class="st0" cx="14.26" cy="62.33" r="9.58"/>
				</g>
			</g>
		</g>
		<g>
			<g>
				<g>
					<g>
						<path class="st1" d="M117.84,46.81c-11.49,0-21.51,6.24-26.88,15.52c5.37,9.28,15.39,15.52,26.88,15.52
							c12.88,0,21.51-6.24,26.88-15.52C139.35,53.05,129.33,46.81,117.84,46.81z"/>
					</g>
				</g>
			</g>
			<path class="st0" d="M112.31,62.33c0,5.29-4.29,9.58-9.58,9.58c-5.29,0-9.58-4.29-9.58-9.58s4.29-9.58,9.58-9.58
				C108.02,52.74,112.31,57.04,112.31,62.33z"/>
		</g>
		<circle class="st0" cx="90.96" cy="62.33" r="9.58"/>
	</g>
</g>
</svg>
