<?xml version="1.0" encoding="utf-8"?>
<!-- Generator: Adobe Illustrator 27.3.1, SVG Export Plug-In . SVG Version: 6.00 Build 0)  -->
<svg version="1.1" id="Layer_1" xmlns="http://www.w3.org/2000/svg" xmlns:xlink="http://www.w3.org/1999/xlink" x="0px" y="0px"
	 viewBox="0 0 170 130" style="enable-background:new 0 0 170 130;" xml:space="preserve">
<style type="text/css">
	.st0{fill:#1E001E;}
	.st1{fill:#F5F5F5;}
</style>
<g>
	<g>
		<g>
			<path class="st0" d="M0,1.31v73.01c0,32.85,13.09,54.37,46.83,54.37c23.75,0,34.84-14.2,37.73-30.85H85h0.44
				c2.89,16.65,13.98,30.85,37.73,30.85c33.73,0,46.83-21.53,46.83-54.37V1.31H0z"/>
			<g>
				<g>
					<g>
						<g>
							<g>
								<g>
									<path class="st1" d="M42.26,50.47c-12.73,0-23.83,6.92-29.78,17.19c5.95,10.28,17.05,17.19,29.78,17.19
										c14.27,0,23.83-6.92,29.78-17.19C66.09,57.39,54.98,50.47,42.26,50.47z"/>
								</g>
							</g>
						</g>
					</g>
				</g>
			</g>
			<g>
				<g>
					<g>
						<g>
							<path class="st1" d="M127.24,50.47c-12.73,0-23.83,6.92-29.78,17.19c5.95,10.28,17.05,17.19,29.78,17.19
								c14.27,0,23.83-6.92,29.78-17.19C151.07,57.39,139.96,50.47,127.24,50.47z"/>
						</g>
					</g>
				</g>
			</g>
		</g>
	</g>
	<g>
		<circle class="st0" cx="40.08" cy="67.66" r="10.62"/>
	</g>
	<g>
		<circle class="st0" cx="125.06" cy="67.66" r="10.62"/>
	</g>
</g>
</svg>
