<svg enable-background="new 0 0 488.631 488.631" viewBox="0 0 488.631 488.631" xmlns="http://www.w3.org/2000/svg"><g fill="#020202"><path d="m443.762 251.057h-161.456v34.625l161.592.072-.079 168.314s-.016 0-.057 0l-161.464-.064c-.006 12.669-3.686 24.393-9.667 34.626h171.131c19.138 0 34.699-15.561 34.699-34.697v-168.179c0-19.12-15.561-34.697-34.699-34.697z"/><path d="m213.053 100.678h-168.186c-19.128 0-34.697 15.569-34.697 34.697v318.558c0 19.136 15.569 34.697 34.697 34.697h80.338 87.848c19.122 0 34.691-15.561 34.691-34.697v-318.558c0-19.128-15.569-34.697-34.691-34.697zm-168.186 34.554 168.314.143-.072 283.972h-168.361zm65.766 317.785c0-10.113 8.202-18.316 18.308-18.316 10.146 0 18.349 8.202 18.349 18.316 0 10.122-8.202 18.341-18.349 18.341-10.106-.001-18.308-8.219-18.308-18.341z"/><path d="m361.752 128.511h-23.054c-1.673 0-3.171 1.003-3.815 2.558-.629 1.528-.279 3.312.899 4.483l40.448 40.455c1.616 1.602 4.221 1.602 5.837 0l40.448-40.455c1.171-1.171 1.53-2.955.9-4.483-.638-1.555-2.143-2.558-3.815-2.558h-23.293c-1.306-71.068-59.434-128.511-130.804-128.511-9.541 0-17.273 7.732-17.273 17.273 0 9.55 7.732 17.29 17.273 17.29 52.322 0 94.951 41.929 96.249 93.948z"/></g></svg>