<svg width="50" height="50" viewBox="0 0 50 50" fill="none" xmlns="http://www.w3.org/2000/svg">
<path fill-rule="evenodd" clip-rule="evenodd" d="M37.18 19.334C37.071 21.707 35.414 24.957 32.207 29.082C28.892 33.389 26.087 35.544 23.794 35.544C22.372 35.544 21.169 34.233 20.186 31.608C19.531 29.203 18.875 26.798 18.219 24.393C17.489 21.77 16.706 20.457 15.869 20.457C15.687 20.457 15.048 20.841 13.956 21.605L12.809 20.127C14.012 19.07 15.199 18.013 16.367 16.955C17.971 15.568 19.177 14.839 19.98 14.765C21.877 14.583 23.045 15.879 23.484 18.656C23.958 21.651 24.286 23.514 24.47 24.243C25.017 26.728 25.619 27.97 26.276 27.97C26.786 27.97 27.553 27.163 28.576 25.551C29.596 23.939 30.143 22.713 30.217 21.87C30.363 20.479 29.816 19.782 28.576 19.782C27.992 19.782 27.39 19.916 26.771 20.182C27.97 16.257 30.259 14.351 33.638 14.46C36.143 14.533 37.324 16.158 37.18 19.334M25 0C11.193 0 0 11.192 0 25C0 38.807 11.193 50 25 50C38.807 50 50 38.807 50 25C50 11.192 38.807 0 25 0" fill="#1E001E"/>
</svg>
