<svg width="50" height="50" viewBox="0 0 50 50" fill="none" xmlns="http://www.w3.org/2000/svg">
<mask id="mask0_0_3306" style="mask-type:luminance" maskUnits="userSpaceOnUse" x="0" y="0" width="50" height="50">
<path fill-rule="evenodd" clip-rule="evenodd" d="M0 0H49.9998V50H0V0Z" fill="white"/>
</mask>
<g mask="url(#mask0_0_3306)">
<path fill-rule="evenodd" clip-rule="evenodd" d="M25.003 37.541C22.452 37.541 20.087 36.782 18.104 35.469L13.284 37.01L14.847 32.351C13.343 30.286 12.459 27.743 12.459 25C12.459 18.084 18.082 12.459 24.997 12.459H25.003C31.918 12.459 37.541 18.085 37.541 25C37.541 31.915 31.918 37.541 25.003 37.541M25 0C11.193 0 0 11.193 0 25C0 38.807 11.193 50 25 50C38.807 50 50 38.807 50 25C50 11.193 38.807 0 25 0" fill="#1E001E"/>
</g>
<path fill-rule="evenodd" clip-rule="evenodd" d="M32.2999 30.1693C31.9969 31.0233 30.7969 31.7323 29.8389 31.9393C29.1829 32.0783 28.3279 32.1903 25.4459 30.9953C21.7609 29.4683 19.3879 25.7233 19.2019 25.4803C19.0249 25.2373 17.7129 23.4973 17.7129 21.6983C17.7129 19.8983 18.6269 19.0223 18.9959 18.6453C19.2979 18.3373 19.7979 18.1953 20.2779 18.1953C20.4329 18.1953 20.5729 18.2033 20.6979 18.2103C21.0659 18.2253 21.2509 18.2473 21.4939 18.8293C21.7969 19.5583 22.5339 21.3573 22.6219 21.5423C22.7109 21.7273 22.7999 21.9783 22.6749 22.2213C22.5569 22.4723 22.4539 22.5833 22.2689 22.7963C22.0839 23.0103 21.9079 23.1733 21.7229 23.4023C21.5539 23.6013 21.3629 23.8143 21.5759 24.1823C21.7889 24.5433 22.5259 25.7453 23.6109 26.7113C25.0109 27.9573 26.1449 28.3553 26.5519 28.5253C26.8539 28.6503 27.2149 28.6203 27.4359 28.3853C27.7159 28.0823 28.0629 27.5813 28.4149 27.0873C28.6659 26.7333 28.9829 26.6893 29.3149 26.8143C29.6539 26.9323 31.4459 27.8183 31.8139 28.0013C32.1819 28.1863 32.4249 28.2743 32.5149 28.4293C32.6019 28.5843 32.6019 29.3133 32.2999 30.1693" fill="#1E001E"/>
</svg>
