<svg width="120" height="74" viewBox="0 0 120 74" fill="none" xmlns="http://www.w3.org/2000/svg">
<rect opacity="0.01" width="120" height="74" fill="#F5F5F5"/>
<mask id="mask0_0_1596" style="mask-type:luminance" maskUnits="userSpaceOnUse" x="24" y="2" width="72" height="50">
<path fill-rule="evenodd" clip-rule="evenodd" d="M24.4219 2H95.9673V51.9667H24.4219V2Z" fill="white"/>
</mask>
<g mask="url(#mask0_0_1596)">
<path fill-rule="evenodd" clip-rule="evenodd" d="M69.2543 31.913H51.0543C50.7783 30.276 50.7783 28.719 50.7783 26.865C50.7783 16.907 55.1753 6.614 60.1443 2C65.0543 6.614 69.5303 16.927 69.5303 26.865C69.5503 28.719 69.3923 30.296 69.2543 31.913V31.913ZM49.4373 31.913H28.3393C25.4793 26.234 24.0793 20.614 24.4933 16C30.9613 16.414 40.4263 20.831 46.5393 27.989C47.5843 29.29 48.6483 30.572 49.4373 31.913V31.913ZM60.1643 51.967C58.5273 50.409 57.1083 48.279 55.6293 45.578H64.6403C63.2203 48.259 61.6623 50.409 60.1643 51.967V51.967ZM55.1163 51.533C51.0743 51.257 45.5133 49.344 40.4263 45.578H54.9193C55.1953 47.826 55.1953 49.975 55.1163 51.533V51.533ZM95.8933 16C96.3273 20.614 94.8293 26.234 91.9893 31.913H70.9693C71.7393 30.572 72.7443 29.29 73.8683 27.989C79.9813 20.851 89.3673 16.414 95.8933 16V16ZM79.8433 45.558C74.7953 49.324 69.2543 51.237 65.0543 51.513C65.0543 49.955 65.0543 47.826 65.4883 45.558H79.8433V45.558ZM86.3103 40.293C85.6003 41.279 84.5363 42.226 83.3923 42.857H36.6603C35.7333 42.226 34.8063 41.279 33.9393 40.293H86.3103V40.293ZM90.5693 34.614C90.1363 35.482 89.3673 36.685 88.6573 37.395H31.5923C31.1783 36.823 30.1923 35.541 29.7583 34.614H90.5693Z" fill="black"/>
</g>
<path fill-rule="evenodd" clip-rule="evenodd" d="M94.0593 56.5802V57.0732H94.3353C94.4733 57.0732 94.6903 56.9942 94.6903 56.8562C94.6903 56.6982 94.5323 56.5802 94.4143 56.5802H94.0593M94.6903 57.2312C94.7693 57.2312 94.9663 57.2902 94.9663 57.5862V58.0792H94.6903V57.8622C94.6903 57.5072 94.6113 57.3492 94.4143 57.3492H94.0593V58.0592H93.7833V56.2842H94.3553C94.7103 56.2842 94.9863 56.5012 94.9863 56.7972C94.9863 56.9942 94.8283 57.2312 94.6903 57.2312M94.3353 55.7912C93.5463 55.7912 92.9943 56.4222 92.9943 57.2112C92.9943 57.9212 93.5663 58.5522 94.3353 58.5522C95.0453 58.5522 95.6763 57.9212 95.6763 57.2112C95.6963 56.4422 95.0453 55.7912 94.3353 55.7912M94.3353 55.5742C95.2033 55.5742 95.8933 56.2842 95.8933 57.2112C95.8933 58.0592 95.2033 58.7692 94.3353 58.7692C93.4673 58.7692 92.7773 58.0592 92.7773 57.2112C92.7773 56.2842 93.4873 55.5742 94.3353 55.5742" fill="black"/>
<mask id="mask1_0_1596" style="mask-type:luminance" maskUnits="userSpaceOnUse" x="84" y="59" width="12" height="13">
<path fill-rule="evenodd" clip-rule="evenodd" d="M84.9492 59.3613H95.972V72.0003H84.9492V59.3613Z" fill="white"/>
</mask>
<g mask="url(#mask1_0_1596)">
<path fill-rule="evenodd" clip-rule="evenodd" d="M90.4902 72.0003C93.4672 72.0003 95.9722 70.7973 95.9722 67.8203C95.9722 66.1243 94.7692 64.9803 92.8362 64.4683C90.8452 63.9753 88.3012 64.0543 88.3012 62.7723C88.4392 61.9243 89.2282 61.7073 90.4312 61.7073C92.2842 61.7073 92.3632 62.6933 92.4422 63.3443H95.4792C95.2622 60.9973 93.3492 59.3613 90.2932 59.3613C87.0982 59.3613 85.2452 61.0563 85.2452 63.2843C85.2452 64.5663 85.8762 65.7103 86.9412 66.2623C87.7102 66.6173 88.7752 66.8933 90.0762 67.1303C91.4172 67.2683 92.6202 67.4063 92.6982 68.3323C92.6982 68.9633 92.0672 69.7523 90.6282 69.7523C88.5582 69.7523 88.1442 68.6083 88.1442 67.8393H84.9492C85.0282 70.2853 87.0792 72.0003 90.4902 72.0003" fill="black"/>
</g>
<mask id="mask2_0_1596" style="mask-type:luminance" maskUnits="userSpaceOnUse" x="70" y="59" width="14" height="13">
<path fill-rule="evenodd" clip-rule="evenodd" d="M70.7324 59.3604H83.7664V72H70.7324V59.3604Z" fill="white"/>
</mask>
<g mask="url(#mask2_0_1596)">
<path fill-rule="evenodd" clip-rule="evenodd" d="M73.7494 65.6704C73.7494 63.7384 75.3864 62.1014 77.2984 62.1014C79.1524 62.1014 80.7104 63.7384 80.7104 65.6704C80.7104 67.5044 79.1524 69.1604 77.2984 69.1604C75.3664 69.1604 73.7494 67.5044 73.7494 65.6704M77.1414 72.0004C78.5014 72.0004 79.7044 71.5664 80.7104 70.9354V71.7244H83.7664V59.4984H80.6904V60.4254C79.7044 59.7154 78.5014 59.3604 77.1214 59.3604C73.6504 59.3604 70.7324 62.1404 70.7324 65.6904C70.7524 69.1604 73.6704 72.0004 77.1414 72.0004" fill="black"/>
</g>
<path fill-rule="evenodd" clip-rule="evenodd" d="M59.7485 65.6703C59.7485 63.7383 61.3855 62.1013 63.2185 62.1013C65.1515 62.1013 66.7875 63.7383 66.7875 65.6703C66.7875 67.5043 65.1515 69.1603 63.2185 69.1603C61.3655 69.1603 59.7485 67.5043 59.7485 65.6703V65.6703ZM66.7685 55.2983V60.4053C65.7035 59.6953 64.5005 59.3403 63.1405 59.3403C59.6495 59.3403 56.8105 62.1213 56.8105 65.6703C56.8105 69.1603 59.6495 71.9803 63.1405 71.9803C64.4805 71.9803 65.7625 71.5463 66.7685 70.9153V71.7043H69.7455V55.2783H66.7685V55.2983Z" fill="black"/>
<mask id="mask3_0_1596" style="mask-type:luminance" maskUnits="userSpaceOnUse" x="24" y="2" width="72" height="70">
<path fill-rule="evenodd" clip-rule="evenodd" d="M24 72H95.972V2H24V72Z" fill="white"/>
</mask>
<g mask="url(#mask3_0_1596)">
<path fill-rule="evenodd" clip-rule="evenodd" d="M52.5723 58.3548H55.5493V55.2988H52.5723V58.3548ZM52.5723 71.7038H55.5493V59.4788H52.5723V71.7038Z" fill="black"/>
<path fill-rule="evenodd" clip-rule="evenodd" d="M40.899 65.6708C40.899 63.7388 42.536 62.1018 44.527 62.1018C46.381 62.1018 48.017 63.7388 48.017 65.6708C48.017 67.5048 46.381 69.1608 44.527 69.1608C42.536 69.1608 40.899 67.5048 40.899 65.6708M44.389 72.0008C45.73 72.0008 46.933 71.5668 48.017 70.9358V71.7248H51.074V55.2988H48.017V60.4058C46.953 59.6958 45.75 59.3408 44.389 59.3408C40.899 59.3408 38 62.1218 38 65.6708C38 69.1608 40.899 72.0008 44.389 72.0008" fill="black"/>
<path fill-rule="evenodd" clip-rule="evenodd" d="M26.899 65.6704C26.899 63.7384 28.536 62.1014 30.389 62.1014C32.381 62.1014 34.017 63.7384 34.017 65.6704C34.017 67.5044 32.381 69.1604 30.389 69.1604C28.536 69.1604 26.899 67.5044 26.899 65.6704M30.31 72.0004C31.73 72.0004 32.933 71.5664 33.998 70.9354V71.7244H36.975V59.4984H33.998V60.4254C32.933 59.7154 31.651 59.3604 30.31 59.3604C26.82 59.3604 24 62.1404 24 65.6904C24 69.1604 26.84 72.0004 30.31 72.0004" fill="black"/>
</g>
</svg>
