<svg width="120" height="74" viewBox="0 0 120 74" fill="none" xmlns="http://www.w3.org/2000/svg">
<rect opacity="0.01" width="120" height="74" fill="#F5F5F5"/>
<mask id="mask0_0_1773" style="mask-type:luminance" maskUnits="userSpaceOnUse" x="20" y="12" width="80" height="50">
<path fill-rule="evenodd" clip-rule="evenodd" d="M20 12H99.9999V61.485H20V12Z" fill="white"/>
</mask>
<g mask="url(#mask0_0_1773)">
<path fill-rule="evenodd" clip-rule="evenodd" d="M86.015 36.767C83.639 36.767 81.413 35.974 79.632 34.674C81.59 32.201 82.656 29.14 82.657 25.986C82.663 22.831 81.597 19.768 79.632 17.299C81.415 15.999 83.64 15.204 86.015 15.204C91.973 15.204 96.797 20.027 96.797 25.986C96.797 31.945 91.973 36.767 86.015 36.767V36.767ZM77.344 32.392C75.969 30.539 75.229 28.292 75.234 25.986C75.228 23.679 75.968 21.432 77.344 19.58C78.719 21.432 79.459 23.679 79.453 25.986C79.457 28.292 78.718 30.539 77.344 32.392V32.392ZM75.055 34.674C73.266 35.991 71.056 36.764 68.664 36.764C66.273 36.764 64.077 35.99 62.288 34.674C64.246 32.201 65.312 29.14 65.313 25.986C65.32 22.831 64.253 19.767 62.288 17.299C64.077 15.982 66.273 15.208 68.664 15.208C71.056 15.208 73.266 15.982 75.055 17.299C73.09 19.768 72.023 22.831 72.03 25.986C72.031 29.14 73.097 32.201 75.055 34.674V34.674ZM60 32.392C58.625 30.539 57.885 28.292 57.89 25.986C57.884 23.679 58.624 21.432 60 19.58C61.375 21.432 62.116 23.679 62.11 25.986C62.114 28.292 61.374 30.539 60 32.392V32.392ZM57.712 34.674C55.86 36.037 53.62 36.769 51.321 36.764C49.027 36.768 46.791 36.036 44.945 34.674C46.903 32.201 47.969 29.14 47.97 25.986C47.977 22.831 46.91 19.767 44.945 17.299C46.791 15.936 49.026 15.203 51.321 15.208C53.713 15.208 55.923 15.982 57.712 17.299C55.747 19.767 54.68 22.831 54.687 25.986C54.688 29.14 55.754 32.201 57.712 34.674V34.674ZM42.657 32.392C41.283 30.539 40.543 28.292 40.547 25.986C40.542 23.679 41.282 21.432 42.657 19.58C44.033 21.432 44.773 23.679 44.767 25.986C44.771 28.292 44.031 30.539 42.657 32.392V32.392ZM40.369 34.674C38.586 35.974 36.36 36.767 33.985 36.767C28.026 36.767 23.204 31.945 23.204 25.986C23.204 20.026 28.026 15.204 33.985 15.204C36.36 15.204 38.585 15.998 40.369 17.298C38.404 19.767 37.337 22.831 37.343 25.986C37.345 29.14 38.411 32.201 40.369 34.674V34.674ZM86.015 12C82.867 11.995 79.81 13.057 77.343 15.013C74.876 13.057 71.819 11.995 68.671 12C65.523 11.995 62.466 13.058 60 15.013C57.533 13.057 54.476 11.995 51.328 12C48.18 11.995 45.124 13.058 42.657 15.013C40.19 13.057 37.133 11.995 33.985 12C26.26 12 20 18.26 20 25.986C20 33.71 26.26 39.971 33.985 39.971C37.133 39.976 40.19 38.914 42.657 36.958C45.124 38.914 48.18 39.976 51.328 39.971C54.476 39.976 57.533 38.914 60 36.958C62.466 38.914 65.523 39.976 68.671 39.971C71.819 39.976 74.876 38.914 77.343 36.958C79.81 38.914 82.867 39.976 86.015 39.971C93.74 39.971 100 33.711 100 25.986C100 18.261 93.74 12 86.015 12V12ZM77.647 55.811C77.647 56.914 76.921 57.747 76.007 58.204C75.254 58.608 74.366 58.715 73.587 58.715C72.808 58.715 71.893 58.554 71.14 58.177C70.226 57.72 69.526 56.833 69.526 55.865C69.526 54.709 70.414 53.794 71.463 53.337C72.108 53.042 72.888 52.934 73.506 52.934C74.098 52.934 74.958 53.014 75.631 53.284C76.841 53.794 77.647 54.762 77.647 55.811ZM81.842 55.677C81.842 54.494 81.357 53.122 79.852 51.213L76.222 46.616H71.167L74.044 49.842C74.528 50.38 75.146 50.863 75.146 50.863C74.448 50.46 73.56 50.299 72.861 50.299C71.194 50.299 69.5 50.649 67.995 51.483C66.381 52.369 65.305 53.848 65.305 55.811C65.305 57.317 65.978 58.473 66.838 59.361C68.774 61.296 72.296 61.485 73.587 61.485C75.495 61.485 78.48 61.054 80.175 59.522C81.17 58.607 81.842 57.344 81.842 55.677ZM51.458 61.135L41.779 46.616H36.348L37.773 48.31C37.799 48.337 37.854 48.363 37.907 48.391C37.853 48.418 37.799 48.444 37.773 48.471L29.33 61.135H34.223L35.541 58.957C35.595 58.849 35.622 58.742 35.622 58.688C35.675 58.688 35.81 58.742 35.944 58.742H44.683C44.817 58.742 44.925 58.715 44.978 58.688C44.973 58.764 44.992 58.839 45.032 58.904L46.404 61.135H51.458ZM43.338 55.972C43.125 55.935 42.909 55.917 42.693 55.919H37.854C37.611 55.919 37.342 55.946 37.208 55.972C37.289 55.891 37.45 55.73 37.611 55.515L39.789 51.912C40.085 51.428 40.219 51.106 40.273 50.971C40.327 51.106 40.461 51.428 40.757 51.94L42.989 55.57C43.097 55.73 43.258 55.891 43.338 55.972ZM64.203 56.725V50.675H59.955V55.3C59.955 56.644 59.901 57.021 59.82 57.37C59.524 58.339 58.503 58.768 57.454 58.768C56.003 58.768 55.33 58.203 55.061 57.316C54.981 57.021 54.954 56.699 54.927 56.376C54.9 56.026 54.927 55.649 54.927 55.247V50.675H50.625V56.752C50.625 58.124 51.082 59.146 51.835 59.844C53.125 61.109 55.303 61.485 57.32 61.485C59.767 61.485 61.649 61.135 62.993 59.818C63.693 59.145 64.203 58.258 64.203 56.725ZM83.024 61.135H87.407V50.514H83.024V61.135Z" fill="black"/>
</g>
</svg>
