<svg width="120" height="74" viewBox="0 0 120 74" fill="none" xmlns="http://www.w3.org/2000/svg">
<rect opacity="0.01" width="120" height="74" fill="#F5F5F5"/>
<mask id="mask0_0_1731" style="mask-type:luminance" maskUnits="userSpaceOnUse" x="27" y="4" width="66" height="66">
<path fill-rule="evenodd" clip-rule="evenodd" d="M27 4H93V69.9998H27V4Z" fill="white"/>
</mask>
<g mask="url(#mask0_0_1731)">
<path fill-rule="evenodd" clip-rule="evenodd" d="M60 68.858C51.491 68.858 43.49 65.544 37.473 59.527C31.456 53.51 28.142 45.509 28.142 37C28.142 28.49 31.456 20.49 37.473 14.473C43.49 8.455 51.491 5.142 60 5.142C68.51 5.142 76.51 8.455 82.527 14.473C88.544 20.49 91.858 28.49 91.858 37C91.858 54.566 77.567 68.858 60 68.858M83.334 13.665C77.102 7.432 68.815 4 60 4C41.804 4 27 18.804 27 37C27 45.814 30.433 54.101 36.666 60.334C42.898 66.567 51.185 70 60 70C68.815 70 77.102 66.567 83.334 60.334C89.567 54.101 93 45.814 93 37C93 28.185 89.567 19.898 83.334 13.665" fill="#231F20"/>
</g>
<path fill-rule="evenodd" clip-rule="evenodd" d="M60 55.256C70.082 55.256 78.256 47.082 78.256 37H60V55.256Z" fill="#231F20"/>
<path fill-rule="evenodd" clip-rule="evenodd" d="M41.7441 37.0001H60.0001V18.7441C49.9181 18.7441 41.7441 26.9181 41.7441 37.0001" fill="#231F20"/>
<path fill-rule="evenodd" clip-rule="evenodd" d="M78.1811 26.6881L76.7211 24.8711L79.6301 20.6181L79.6121 20.5961L74.8481 22.5571L73.3731 20.7511L78.4171 14.2631L79.6611 15.7991L76.5031 19.9311L81.3291 17.8591L82.6641 19.5071L79.6341 23.7981L84.3321 21.5671L85.5761 23.1031L78.1811 26.6881ZM60.0011 56.5111C49.2251 56.5111 40.4891 47.7761 40.4891 37.0001C40.4891 26.2241 49.2251 17.4891 60.0011 17.4891C70.7761 17.4891 79.5121 26.2241 79.5121 37.0001C79.5121 47.7761 70.7761 56.5111 60.0011 56.5111V56.5111ZM35.2601 21.3491L39.1831 16.6731C39.9951 15.7061 41.1311 14.9331 42.2091 15.8381C42.5431 16.1181 42.6841 16.2101 43.0881 16.9471C43.1831 17.2091 43.2561 17.6831 43.0771 18.1481C44.0161 17.5661 45.0161 17.7551 45.6621 18.3841C46.6561 19.3501 46.5101 20.4671 45.5651 21.5931L41.4271 26.5241L35.2601 21.3491ZM55.5371 8.12208H57.9551L60.1431 13.8491L62.3321 8.12208H64.7501V16.1621H63.1411V10.5491L61.0231 16.1621H59.2641L57.1461 10.5491V16.1621H55.5371V8.12208ZM60.0011 6.45508C43.1311 6.45508 29.4551 20.1301 29.4551 37.0001C29.4551 53.8691 43.1311 67.5451 60.0011 67.5451C76.8701 67.5451 90.5461 53.8691 90.5461 37.0001C90.5461 20.1301 76.8701 6.45508 60.0011 6.45508V6.45508Z" fill="#231F20"/>
<path fill-rule="evenodd" clip-rule="evenodd" d="M41.3266 17.8512C40.9296 17.5182 40.3126 17.5052 40.0396 17.8302L37.6836 20.6382L39.1416 21.8622L41.4706 19.0852C41.7636 18.7362 41.7626 18.2172 41.3266 17.8512" fill="#231F20"/>
<path fill-rule="evenodd" clip-rule="evenodd" d="M44.1845 21.106C44.5105 20.717 44.4635 20.112 43.9875 19.712C43.5675 19.359 42.9435 19.456 42.6645 19.79L40.1875 22.741L41.7285 24.033L44.1845 21.106Z" fill="#231F20"/>
</svg>
