<svg width="123" height="74" viewBox="0 0 123 74" fill="none" xmlns="http://www.w3.org/2000/svg">
<rect opacity="0.01" x="2" width="120" height="74" fill="#F5F5F5"/>
<mask id="mask0_0_1668" style="mask-type:luminance" maskUnits="userSpaceOnUse" x="0" y="31" width="123" height="12">
<path fill-rule="evenodd" clip-rule="evenodd" d="M0 31H123V43H0V31Z" fill="white"/>
</mask>
<g mask="url(#mask0_0_1668)">
<path fill-rule="evenodd" clip-rule="evenodd" d="M7.36156 37.1919C9.00607 37.187 10.1733 37.2507 10.9938 37.8571C11.4304 38.1781 11.8511 38.7428 11.8511 39.4191C11.8511 41.2873 9.50668 41.416 7.19305 41.416H3.97537V37.1968C4.84867 37.1968 5.75395 37.2127 6.62725 37.1968C6.88309 37.1943 7.12663 37.1931 7.36156 37.1919ZM83.6843 33.0254L86.5465 38.3716H80.9672L83.6843 33.0254ZM7.44766 32.2303C8.43904 32.2291 9.40951 32.2683 9.94333 32.6052C10.6383 33.0572 10.7994 33.3794 10.7994 34.0557C10.7994 34.4734 10.4599 35.1999 10.1045 35.4731C9.26314 36.1493 7.76008 36.1812 6.64324 36.1812H3.97537V32.2352H6.46612C6.78469 32.2352 7.11802 32.2303 7.44766 32.2303ZM103.266 32.1372C104.509 32.1286 105.769 32.1911 106.567 32.5733C107.246 32.8955 107.812 33.2655 107.812 34.3938C107.812 35.9888 106.826 36.4066 106.081 36.681C104.771 37.0191 102.621 36.9064 101.149 36.9224V32.1703C101.78 32.1703 102.521 32.1409 103.266 32.1372ZM83.2968 31.3176L78.5909 40.2411C78.1702 41.046 78.0091 41.3192 77.8147 41.6904C77.5884 42.0763 77.458 42.3348 76.6819 42.3507V42.6729H80.1911L80.2083 42.3029C79.5761 42.3189 79.303 42.2698 79.2858 41.7063C79.2858 41.5287 79.4482 41.2396 79.6905 40.8047L80.3535 39.6445H87.1443L87.9536 41.0141C88.4874 41.8999 88.3411 42.2221 87.3878 42.2698V42.6729H91.592V42.238C90.5895 42.238 90.6387 41.9648 89.7482 40.3379L84.7851 31.3176H83.2968ZM40.1989 31.3164V31.6716C40.7659 31.6716 40.927 31.7194 41.0894 31.9461C41.2505 32.1543 41.2505 32.5084 41.2505 33.1381V41.416C41.2505 42.1571 40.959 42.2858 40.2641 42.3017V42.6729H50.4362L51.6157 40.3207L51.2443 40.1762C50.8568 40.8034 49.9675 41.416 48.5604 41.416H43.2075V32.6382C43.2075 32.1066 43.3046 31.9461 43.4338 31.8162C43.6281 31.6557 43.7253 31.6876 44.2259 31.6716V31.3164H40.1989ZM105.298 31.3127C105.057 31.3102 104.8 31.3115 104.525 31.3127C104.161 31.3139 103.769 31.3176 103.348 31.3176H98.1749V31.6716C98.8859 31.6716 99.1774 31.8811 99.1774 32.7019V41.6732C99.1774 42.2858 98.7247 42.2698 98.1749 42.2539V42.6729H102.217V42.2539C101.554 42.2539 101.166 42.189 101.149 41.4V38.0494C101.586 38.0825 101.974 38.0494 102.653 38.0494C102.896 38.0494 104.19 38.0666 104.578 38.0494C106.049 38.0494 106.728 39.7891 107.522 41.0141C108.185 42.0444 107.893 42.6729 112.13 42.6729C112.13 42.5761 112.099 42.3666 112.099 42.2698C110.287 42.2858 109.947 41.2065 109.17 39.8209C108.443 38.5652 108.249 37.7432 106.373 37.5337C109.219 37.0032 109.963 35.7144 109.963 34.248C109.947 32.7669 108.848 31.8481 107.052 31.4462C106.607 31.3458 106.022 31.3176 105.298 31.3127ZM18.9826 31.3017V31.7194C19.37 31.7194 19.5324 31.7366 19.7587 31.8652C20.017 32.0257 20.3405 32.7669 20.7292 33.524L25.5803 42.6729H27.2138C28.2162 40.6919 29.8337 37.47 31.0784 35.0382C31.9197 33.4272 32.5347 32.1396 32.777 31.8334C32.9222 31.6557 33.3269 31.7194 33.5852 31.7194V31.3017L30.1891 31.3176V31.7194C30.2223 31.7194 31.1756 31.5908 31.0784 32.2033C30.9985 32.686 27.2138 39.7413 26.7451 40.8684L22.9764 33.7984C22.7021 33.2826 22.4758 32.8955 22.3626 32.5905C22.0551 31.8652 22.5238 31.7194 23.1707 31.7194V31.3017H18.9826ZM123.968 31.2845L119.957 31.3004V31.6398C120.62 31.6716 120.814 31.6876 120.943 32.1543C121.007 32.332 120.993 32.7338 120.993 33.2986V40.6589C120.993 41.9954 121.106 42.3017 120.038 42.3017V42.6729H124L123.984 42.3017C122.9 42.3017 122.948 41.8827 122.948 40.6589V33.2986C122.948 31.9779 122.916 31.6398 123.968 31.6398V31.2845ZM7.30006 31.2674C5.64571 31.2735 3.99997 31.2968 1.01599 31.2845L1 31.6557C1.40344 31.6557 1.54981 31.6398 1.79212 31.8321C2.01844 32.0269 2.05042 32.2352 2.05042 32.9445V40.5302C2.05042 41.1746 2.09962 41.8349 1.95325 42.0126C1.74415 42.2539 1.59778 42.3017 1.08118 42.2858V42.6729H7.22626C8.90767 42.6729 11.6727 42.6239 12.8043 41.7382C13.2422 41.4968 14.0343 40.7556 14.0171 39.4999C14.0171 37.9698 13.3554 37.5018 12.7563 37.1637C12.2225 36.8746 11.3824 36.6492 10.396 36.4875C11.1881 36.2143 11.3652 36.1334 11.8671 35.7463C12.3849 35.3763 12.7244 34.6351 12.7244 33.8952C12.7244 31.962 10.6223 31.3495 9.00484 31.2698C8.43658 31.2661 7.86832 31.2649 7.30006 31.2674V31.2674ZM64.1494 31.0003C61.7718 30.9844 59.8481 31.5957 58.2959 32.7877C56.7264 33.9797 55.9502 35.429 55.9502 37.2335C55.9502 38.7147 56.7264 40.0684 57.9884 41.1317C59.5086 42.4193 61.6107 43 64.1974 43C65.281 43 66.3979 42.8224 67.238 42.5969C68.4839 42.2748 70.1334 41.5336 70.634 40.4383L70.602 38.8114C70.57 37.6844 70.65 37.6354 71.8148 37.6207V37.2335H67.4323V37.6207C67.8849 37.6207 68.1924 37.6035 68.4667 37.7811C68.7263 37.9747 68.6611 38.8445 68.6611 39.1826L68.6451 40.1652C68.2736 40.8733 67.4163 41.2604 66.8013 41.5017C66.2355 41.7271 65.1998 41.9685 64.2306 41.9844C62.6132 42.0003 61.3512 41.5495 60.3008 40.8892C59.2331 40.197 58.1987 38.7637 58.1987 36.9763C58.1987 35.2526 59.2983 33.8351 60.5923 32.9482C61.4324 32.3687 62.8555 31.8701 64.2626 31.886C65.4754 31.902 66.6082 32.1923 67.4323 32.6591C68.3708 33.1748 69.3732 34.2223 69.7447 34.9941L70.1162 34.8495L69.5184 32.3209C68.7742 31.8701 67.853 31.5467 66.9797 31.3384C66.0252 31.113 65.0547 31.0162 64.1494 31.0003Z" fill="black"/>
</g>
</svg>
