<svg width="120" height="74" viewBox="0 0 120 74" fill="none" xmlns="http://www.w3.org/2000/svg">
<rect opacity="0.01" width="120" height="74" fill="#F5F5F5"/>
<path fill-rule="evenodd" clip-rule="evenodd" d="M34.74 47.0302C31.799 47.7742 29.94 48.1712 26.827 48.9162C13.6 52.2002 13.999 45.2322 14.657 41.9732C15.561 37.3102 17.873 33.2592 22.226 28.2782C24.656 25.6852 26.911 23.4622 29.886 22.5692C32.166 21.9472 31.955 23.7282 31.681 23.9672C31.39 23.9732 29.455 24.1692 29.33 26.1692C29.24 27.6092 31.338 28.1012 32.63 24.8522C33.657 22.2632 31.843 21.1192 30.797 21.0222C22.106 20.2982 5.989 37.4692 10.918 47.9902C12.229 50.2872 15.43 51.9892 18.884 51.5412C20.706 51.3092 22.74 50.9142 26.064 50.1142C28.042 49.6412 38.186 46.3252 41.517 52.1292C41.517 52.1292 42.625 50.0712 45.395 50.0302C47.67 49.8322 50.881 50.6862 53.346 52.3422C52.597 51.4582 46.567 44.1172 34.74 47.0302" fill="black"/>
<path fill-rule="evenodd" clip-rule="evenodd" d="M32.3948 34.381C33.0768 34.545 35.2528 33.057 36.5198 31.716C37.5268 30.649 39.2548 29.278 40.3428 28.884C41.1588 28.507 42.4198 28.379 43.2438 28.859C43.7968 29.163 44.1738 29.791 44.2038 30.461C44.2868 32.101 42.7668 34.143 41.8868 34.218C41.2058 34.274 40.7768 33.848 40.8428 33.337C41.0698 31.604 42.5268 31.112 43.0838 31.193C43.3068 30.853 43.2518 30.355 42.8938 30.147C42.5238 29.932 41.7678 30.082 41.0768 30.594C38.6258 32.458 36.4708 35.549 35.2208 38.958C34.9988 39.603 34.8778 40.565 35.2708 41.231C36.3458 42.82 38.8588 40.613 38.8588 40.613C40.5538 39.164 42.1918 37.159 43.4758 35.383C46.8158 30.759 51.2478 26.77 53.2058 29.368C53.2388 29.406 53.2898 29.488 53.3108 29.507C53.3428 29.468 53.6858 28.911 53.6858 28.911H56.8448C56.8448 28.911 50.1548 40.046 50.1438 40.064C49.9338 40.404 49.9168 40.744 50.1398 40.928C50.3218 41.045 50.6408 40.903 50.6408 40.903C52.3768 40.096 55.0488 36.422 55.0638 36.405H56.1518C54.4468 38.764 52.3328 41.547 49.7108 43.322C46.5998 45.282 45.9468 42.851 46.3258 41.668C46.3208 41.671 43.9888 44.501 41.7608 43.985C39.6568 43.493 40.8498 40.245 40.8958 40.062C40.7078 40.234 35.4388 46.075 32.2588 43.336C29.5668 41.017 33.3668 35.216 33.3708 35.204C32.7648 35.369 32.2328 35.495 31.7858 35.571C31.1058 37.231 24.2088 46.842 21.0778 43.304C19.6288 41.474 21.0818 37.329 23.7628 33.85C26.7888 29.926 30.6248 27.674 32.5238 28.861C34.4548 30.214 32.7178 33.712 32.3948 34.381M44.4168 40.426C44.4128 40.739 44.6128 41.47 45.7488 40.776C47.4698 39.936 52.0848 31.604 52.7108 30.528C52.5358 29.727 51.4568 29.964 50.6378 30.783C49.9308 31.49 49.0558 32.441 47.7568 34.185C47.2508 34.865 44.4398 38.801 44.4168 40.426M30.5878 35.421C29.7008 35.168 28.3928 34.584 27.7498 33.355C27.7338 33.325 27.7078 33.346 27.6948 33.367C26.9088 34.445 25.3738 36.685 24.7768 38.452C23.7708 41.422 25.6868 41.269 26.7628 40.426C28.7248 38.891 30.4478 35.786 30.5108 35.69C30.6048 35.543 30.6578 35.444 30.5878 35.421M32.2608 31.263C32.3068 30.795 32.0028 29.329 30.3248 30.286C29.8178 30.587 28.6298 31.662 28.9028 32.925C29.0798 33.695 30.1258 34.343 31.0918 34.453C31.1808 34.464 31.2258 34.464 31.2618 34.402C31.4008 34.15 32.0998 32.89 32.2608 31.263" fill="black"/>
<path fill-rule="evenodd" clip-rule="evenodd" d="M71.6619 41.4923C69.8749 45.9203 66.8109 49.3653 63.2099 51.0623C61.5439 51.7013 59.1869 52.0873 57.4119 50.3093C55.3229 48.2173 55.5459 44.6783 56.4389 42.2943C61.8689 27.8053 73.0329 21.9223 76.4119 21.2863C78.2509 20.9373 79.5349 21.0033 80.4769 21.9823C80.4769 21.9823 84.7559 19.8673 89.1999 22.3023C91.3199 23.4643 92.1599 23.8893 93.7039 24.7483L94.6129 25.2823C93.9859 25.8583 92.8719 26.9893 92.1919 27.7453C90.8209 27.1003 86.8919 24.4343 85.3799 23.7953C84.6379 23.4833 82.2729 22.4513 81.0619 23.0613C81.5419 24.5233 79.3579 32.1503 74.2319 33.4753C72.8189 33.8423 71.3129 32.3983 73.0419 29.0293C75.1989 24.8243 79.4289 22.5423 79.4319 22.5383C78.6789 22.2673 77.8169 22.3963 76.8689 22.8273C72.2659 24.9083 67.4659 30.6223 65.7549 33.0313C63.0949 36.7823 60.6239 41.1253 60.1339 45.5483C60.0269 47.1083 60.5459 48.3133 61.5639 48.8883C63.1819 49.8363 65.0339 48.6103 66.2829 47.5973C67.6979 46.3843 69.0939 44.6413 70.0079 42.8853C71.2419 40.5093 71.5699 38.0973 70.6399 37.7433C69.7139 37.3893 68.6299 38.5423 68.1569 39.2143C66.9079 40.8513 66.6619 42.6753 66.6619 42.6753C64.8589 43.4493 63.2739 44.8523 62.4929 45.7073C62.7389 43.8043 63.0789 42.5973 63.7769 41.1523C65.1579 38.3093 67.9369 36.3173 69.7529 36.1603C70.5269 36.0943 71.2809 36.2613 71.8159 37.1283C72.4929 38.2363 72.0449 40.5413 71.6619 41.4923M80.0559 23.3873C77.4359 24.6723 74.8589 27.3513 73.5639 30.1433C72.5969 32.2293 73.6899 32.6523 74.3189 32.4853C76.9629 31.7773 80.1899 27.2093 80.0559 23.3873" fill="black"/>
<path fill-rule="evenodd" clip-rule="evenodd" d="M105.33 24.6005C103.045 25.8415 100.668 26.6535 97.8006 26.3715C97.0016 27.2225 96.2296 28.1095 95.5156 29.0265C99.5446 29.9995 103.823 27.7725 106.198 25.7445C108.851 23.4735 109.999 21.0195 109.999 21.0195C109.999 21.0195 108.114 23.0895 105.33 24.6005" fill="black"/>
<path fill-rule="evenodd" clip-rule="evenodd" d="M62.0963 28.9062H59.0973L57.4023 31.6493H60.4023L62.0963 28.9062Z" fill="black"/>
<path fill-rule="evenodd" clip-rule="evenodd" d="M102.273 43.7296H103.343C102.528 44.9856 98.5735 50.8656 95.3905 51.5406C93.5185 51.9376 93.2515 50.3926 93.4935 49.1036C92.7945 49.8136 91.0105 51.3436 89.9335 51.5496C88.8195 51.7616 87.2115 51.3986 87.6345 48.4606C85.6495 50.8446 83.2105 52.6476 81.7365 50.9026C80.7075 49.6686 81.2105 47.5856 82.3035 44.5266C82.3035 44.5266 82.6755 43.4366 82.7195 43.3116C82.1795 43.4766 81.1045 43.5316 80.9595 43.5386C79.2355 46.4326 77.0505 49.5936 73.9225 51.1706C73.4615 51.3896 72.2915 51.8626 71.3595 51.4166C70.4545 50.9226 70.1035 49.9446 70.2775 48.4126C70.5255 46.4736 71.4165 44.7746 72.3085 43.1946C73.9775 40.6976 76.2835 37.6766 79.3755 36.4466C80.0595 36.1436 81.0835 35.9616 81.9155 36.3606C82.5745 36.6946 82.8045 37.5616 82.8045 38.3096C82.8045 38.6606 82.7625 39.0186 82.7125 39.3616C82.4455 40.5896 81.9105 41.7266 81.4835 42.5616C81.6905 42.6916 82.8965 42.4246 83.2125 42.1926C87.5305 33.5646 92.4685 27.2426 98.3235 22.8606C98.3235 22.8606 100.702 21.0856 102.218 21.4046C102.62 21.4916 102.921 21.7856 102.992 22.1826C103.206 23.4356 102.627 24.4896 102.11 25.4216C101.66 25.5666 100.978 25.6906 100.978 25.6906C100.978 25.6906 102.036 23.9326 102.082 22.9986C102.099 22.6156 101.848 22.5526 101.756 22.5566C100.863 22.6006 98.0635 25.3536 98.0635 25.3536C93.7135 29.5166 88.6015 38.1986 87.8065 40.0206C89.4735 39.2026 95.4865 33.6106 98.3625 29.7636C98.9575 29.7476 99.4575 29.6516 99.4575 29.6516C98.9965 30.5206 95.8385 34.3956 92.0945 37.8216C90.3695 39.4006 88.4705 40.8506 86.8095 41.9486C85.9915 43.6376 84.9585 46.2126 84.8325 47.4616C84.7655 48.0886 84.8805 48.9636 85.6015 48.8326C86.7015 48.6356 88.8445 45.2846 88.8445 45.2846C90.8265 42.3166 93.3395 38.5046 96.7795 36.5826C97.5725 36.1536 98.7715 35.9506 99.5035 36.4006C99.9975 36.7026 100.082 36.9136 100.277 37.2686C100.277 37.2686 100.603 36.7236 100.753 36.4566H103.959C103.959 36.4566 97.8705 46.6506 97.2045 48.0246C96.9425 48.5706 97.3105 48.8096 97.7285 48.6356C99.1335 48.0546 101.113 45.3646 102.273 43.7296M79.9375 43.3146C79.0625 42.9886 77.8635 42.2876 77.2945 41.0126V41.0106C75.9305 42.7236 73.9805 45.9486 74.0325 47.4866C74.0465 47.8656 74.2625 49.0926 75.7185 48.3736C77.2595 47.6136 79.2905 44.6966 79.9375 43.3146M81.7725 38.6586C81.7545 37.5166 81.0355 37.2026 79.9445 37.7926C79.3525 38.1116 78.1925 39.0766 78.4495 40.4936C78.6955 41.8666 80.3945 42.4626 80.4845 42.4066C80.9985 41.5576 81.7935 39.9296 81.7725 38.6586M97.6295 41.6236C98.2545 40.5716 99.6715 38.4036 99.6465 38.2046C99.5405 37.3356 98.5065 37.8256 98.1005 38.1056C94.8365 40.6156 91.5915 46.1276 91.5345 47.8296C91.4995 48.8766 92.3195 48.6006 92.4685 48.5506C93.8165 48.1396 96.4095 43.6986 97.6295 41.6236" fill="black"/>
<path fill-rule="evenodd" clip-rule="evenodd" d="M104.938 46.4077C104.196 46.4077 103.594 45.8057 103.594 45.0637C103.594 44.3227 104.196 43.7197 104.938 43.7197C105.682 43.7197 106.282 44.3227 106.282 45.0637C106.282 45.8057 105.682 46.4077 104.938 46.4077V46.4077ZM104.938 43.9157C104.313 43.9157 103.81 44.4327 103.81 45.0637C103.81 45.6957 104.313 46.2097 104.938 46.2097C105.563 46.2097 106.07 45.6957 106.07 45.0637C106.07 44.4327 105.563 43.9157 104.938 43.9157V43.9157ZM105.503 45.7987L105.149 45.1717C105.331 45.1167 105.466 44.9817 105.466 44.7677C105.466 44.5177 105.257 44.3247 105.002 44.3247H104.499V45.7987H104.704V45.1977H104.927L105.264 45.7987H105.503ZM105.257 44.7677C105.257 44.9147 105.142 45.0227 104.979 45.0227H104.704V44.5057H104.979C105.142 44.5057 105.257 44.6187 105.257 44.7677V44.7677Z" fill="black"/>
</svg>
