<svg width="120" height="74" viewBox="0 0 120 74" fill="none" xmlns="http://www.w3.org/2000/svg">
<rect opacity="0.01" width="120" height="74" fill="#F5F5F5"/>
<mask id="mask0_0_1835" style="mask-type:luminance" maskUnits="userSpaceOnUse" x="36" y="28" width="84" height="16">
<path fill-rule="evenodd" clip-rule="evenodd" d="M36.2871 28.9395H120.001V43.1985H36.2871V28.9395Z" fill="white"/>
</mask>
<g mask="url(#mask0_0_1835)">
<path fill-rule="evenodd" clip-rule="evenodd" d="M49.0261 31.0795H48.4261C46.6861 31.0795 45.5461 31.5595 44.9861 32.2195H44.9661C44.4061 31.5395 43.1861 31.0795 41.4671 31.0795H40.8471C38.8871 31.0795 37.2871 31.7595 36.6471 33.1595C36.3671 33.7595 36.2871 34.5595 36.2871 35.4395V42.7185C36.2871 42.8785 36.3671 42.9785 36.5471 42.9785H38.5271C38.7071 42.9785 38.7871 42.8785 38.7871 42.7185V36.6395C38.7871 35.7795 38.8071 35.1395 38.8471 34.7395C38.9471 33.7195 39.7071 33.2395 41.1471 33.2395H41.3271C42.7661 33.2395 43.5661 33.7395 43.6661 34.7395C43.7061 35.1195 43.7261 35.7595 43.7261 36.6395V42.7185C43.7261 42.8785 43.8261 42.9785 43.9861 42.9785H45.9661C46.1461 42.9785 46.2261 42.8585 46.2261 42.6985V36.6595C46.2261 35.7995 46.2461 35.1595 46.2861 34.7595C46.3861 33.7395 47.1861 33.2595 48.6261 33.2595H48.8061C50.2461 33.2595 51.0061 33.7595 51.1061 34.7595C51.1461 35.1395 51.1661 35.7795 51.1661 36.6595V42.7385C51.1661 42.9185 51.2661 42.9985 51.4261 42.9985H53.4061C53.5861 42.9985 53.6661 42.8785 53.6661 42.7185V35.4595C53.6661 34.5995 53.5861 33.7795 53.3061 33.1795C52.5861 31.7595 50.9661 31.0795 49.0261 31.0795V31.0795ZM63.7651 38.8385C63.5651 40.7385 62.6251 41.0385 61.0651 41.0385H61.0051C59.4851 41.0385 58.5051 40.7385 58.3051 38.8385C58.2451 38.2585 58.2051 37.7985 58.2051 37.1395C58.2051 36.4795 58.2451 35.9995 58.3051 35.4395C58.5051 33.5395 59.4451 33.2395 61.0051 33.2395H61.0651C62.5851 33.2395 63.5651 33.5395 63.7651 35.4395C63.8251 36.0195 63.8651 36.4995 63.8651 37.1395C63.8851 37.7985 63.8451 38.2585 63.7651 38.8385V38.8385ZM61.2051 31.0795H60.9051C58.3051 31.0795 56.7051 31.8995 56.1051 33.9195C55.8651 34.7195 55.7451 35.6195 55.7451 37.1395C55.7451 38.6585 55.8651 39.5785 56.1051 40.3585C56.7051 42.3785 58.3251 43.1985 60.9051 43.1985H61.2051C63.8051 43.1985 65.4051 42.3785 66.0051 40.3585C66.2451 39.5585 66.3651 38.6585 66.3651 37.1395C66.3651 35.6195 66.2451 34.6995 66.0051 33.9195C65.4051 31.8995 63.8051 31.0795 61.2051 31.0795V31.0795ZM77.7241 31.2795H75.7041C75.4641 31.2795 75.4041 31.3395 75.3841 31.5595C75.3041 33.0395 74.9841 34.7795 74.5241 36.3195C74.0441 37.9185 73.4441 39.4385 72.8641 40.5585C72.2841 39.4385 71.6841 37.9185 71.2041 36.3195C70.7441 34.7795 70.4241 33.0195 70.3441 31.5195C70.3241 31.2995 70.2241 31.2595 70.0041 31.2595H67.9851C67.7651 31.2595 67.7051 31.3595 67.7251 31.5795C68.0051 35.5795 69.2441 38.6985 71.4041 42.7585C71.4841 42.9185 71.6041 42.9585 71.7841 42.9585H73.9641C74.1641 42.9585 74.2241 42.8985 74.3041 42.7385C75.7041 40.0985 77.8641 35.5995 78.0041 31.4995C78.0041 31.3795 77.9441 31.2795 77.7241 31.2795V31.2795ZM82.3031 31.2795H80.3041C80.1241 31.2795 80.0641 31.3395 80.0641 31.5195V42.7385C80.0641 42.9185 80.1441 42.9785 80.3041 42.9785H82.3031C82.4831 42.9785 82.5431 42.9185 82.5431 42.7385V31.5195C82.5431 31.3795 82.4831 31.2795 82.3031 31.2795V31.2795ZM90.1431 36.1195C89.5031 35.8795 89.0031 35.6795 88.5631 35.5395C87.5631 35.1795 87.2831 34.8195 87.2831 34.3195C87.2831 33.4795 88.1231 33.1395 89.4631 33.1395H89.5631C90.3431 33.1395 91.2631 33.2395 92.4031 33.4595C92.6231 33.4995 92.7231 33.4595 92.7231 33.2395V31.7195C92.7231 31.5195 92.6831 31.4595 92.4631 31.4195C91.7231 31.2595 90.4031 31.0995 89.6431 31.0995H89.4631C87.8831 31.0995 86.7231 31.3995 85.9831 32.0595C85.3631 32.5995 84.9231 33.4395 84.9231 34.4195V34.4795C84.9231 35.3995 85.2431 36.1395 85.7831 36.6395C86.3031 37.1195 86.9631 37.4185 87.8831 37.7385C88.4231 37.9385 88.8831 38.0985 89.4031 38.2985C90.5431 38.6985 91.0431 39.0385 91.0431 39.7185C91.0431 40.6185 90.2831 41.0985 88.5431 41.0985H88.4431C87.4831 41.0985 86.3631 40.8985 85.3631 40.5785C85.1631 40.5185 85.0631 40.5985 85.0631 40.7985V42.2785C85.0631 42.4785 85.0831 42.5785 85.3031 42.6385C86.2231 42.9585 87.5231 43.1385 88.5831 43.1385H88.6631C91.7231 43.1385 93.3831 41.7785 93.3831 39.5585V39.5385C93.3831 38.6785 93.1031 37.9185 92.5831 37.3995C92.1231 36.9595 91.3431 36.5595 90.1431 36.1195V36.1195ZM100.182 40.8185H99.9221C99.1221 40.8185 98.6421 40.6185 98.3421 40.2985C97.9621 39.8985 97.8621 39.1985 97.8621 38.3985V33.3395H100.062C100.242 33.3395 100.302 33.2795 100.302 33.1195V31.4995C100.302 31.3195 100.222 31.2595 100.062 31.2595H97.8621V29.1795C97.8621 28.9995 97.7821 28.9395 97.6021 28.9395H95.6021C95.4221 28.9395 95.3621 28.9995 95.3621 29.1795V38.5385C95.3621 40.1785 95.6821 41.1985 96.4021 41.9185C97.0621 42.5785 98.1221 42.9585 99.6621 42.9585H100.202C100.382 42.9585 100.462 42.8785 100.462 42.7185V41.0585C100.462 40.9185 100.342 40.8185 100.182 40.8185V40.8185ZM109.341 38.7785C109.341 39.6585 109.321 40.1785 109.001 40.5385C108.661 40.9185 108.081 41.0985 107.262 41.0985H106.862C105.382 41.0985 104.502 40.4985 104.502 39.3585C104.502 38.8385 104.722 38.3585 105.042 38.0785C105.422 37.7585 105.962 37.5785 106.942 37.5785H107.162C107.902 37.5785 108.721 37.6385 109.381 37.8385V38.7585H109.341V38.7785ZM109.561 31.5395C108.901 31.2595 107.881 31.0595 106.562 31.0595H106.402C105.602 31.0595 104.502 31.1595 103.482 31.3395C103.302 31.3595 103.242 31.4595 103.242 31.6595V33.1395C103.242 33.3395 103.322 33.3995 103.542 33.3595C104.462 33.2395 105.422 33.1195 106.142 33.1195H106.242C107.282 33.1195 108.101 33.1995 108.601 33.5595C109.101 33.8995 109.361 34.3995 109.361 35.4795V35.7995C108.601 35.6395 107.702 35.5395 106.862 35.5395H106.642C105.242 35.5395 103.942 35.8795 103.102 36.6595C102.462 37.2595 102.042 38.1585 102.042 39.2985V39.3985C102.042 41.7185 103.642 43.1385 106.882 43.1385H107.462C108.741 43.1385 109.961 42.7585 110.681 42.1385C111.521 41.4585 111.841 40.4185 111.841 38.7785V35.4395C111.841 33.1995 110.961 32.1595 109.561 31.5395V31.5395ZM119.741 31.0795H118.401C116.481 31.0795 114.981 31.7395 114.341 33.1395C114.061 33.7395 113.981 34.5395 113.981 35.4195V42.7585C113.981 42.9385 114.061 42.9985 114.221 42.9985H116.221C116.401 42.9985 116.461 42.9385 116.461 42.7585V36.6195C116.461 35.7595 116.481 35.1195 116.521 34.7195C116.621 33.6995 117.261 33.2395 118.701 33.2395H119.761C119.941 33.2395 120.001 33.1595 120.001 32.9795V31.3395C120.001 31.1595 119.921 31.0795 119.741 31.0795V31.0795Z" fill="black"/>
</g>
<path fill-rule="evenodd" clip-rule="evenodd" d="M22.8472 26.02H24.7872L25.2272 26.16C26.2672 26.54 27.0872 27.5 27.6872 28.84C28.5072 30.7 28.8872 32.859 29.0272 35.179C29.1672 37.199 29.1072 38.539 28.8872 40.479C28.8072 40.919 28.6672 41.439 28.5872 41.819C28.2872 42.719 27.5472 43.459 26.5672 43.379C25.6672 43.239 25.3672 42.479 25.3072 41.659C25.2272 41.279 25.3872 40.539 25.3872 40.159C25.5272 39.119 25.6872 37.779 25.6872 36.579C25.6872 35.239 25.3872 34.259 24.4872 33.979C23.4472 33.679 22.1672 34.719 21.2872 36.739C20.4672 38.519 20.0272 40.239 19.2672 42.559C18.3072 45.698 16.4272 46.578 13.9082 46.738C11.3682 46.878 9.88818 45.319 9.06818 43.899C8.10818 42.339 6.98818 40.239 6.30818 39.119C5.70818 38.159 5.10818 37.339 4.44818 37.479C4.00818 37.559 3.40818 37.779 3.48818 39.419C3.48818 40.619 4.08818 42.319 4.52818 43.659C4.60818 44.179 4.90818 44.999 4.96818 45.519C5.10818 46.718 4.58818 47.238 4.22818 47.378C3.84818 47.598 2.96918 47.598 2.36918 46.938C2.14918 46.718 1.92918 46.338 1.76918 45.898C1.24918 44.779 0.56918 42.759 0.20918 40.459C-0.17082 37.919 -0.0108202 35.759 0.50918 33.679C1.60918 29 4.06818 28.34 5.40818 28.34C7.12818 28.34 8.00818 29.24 8.68818 29.9C9.42818 30.72 10.8482 32.959 11.5882 34.139C12.4082 35.559 13.6082 36.459 14.8682 36.299C15.9082 36.219 16.6472 35.559 17.1072 34.439C17.6272 33.399 18.3672 31.24 19.3472 29.14C20.0872 27.42 21.4272 26.38 22.7672 26H22.8472" fill="black"/>
</svg>
