<svg width="120" height="74" viewBox="0 0 120 74" fill="none" xmlns="http://www.w3.org/2000/svg">
<rect opacity="0.01" width="120" height="74" fill="#F5F5F5"/>
<path fill-rule="evenodd" clip-rule="evenodd" d="M30.0865 43.8922C29.5765 43.8922 29.1975 43.5192 29.1975 43.0152C29.1975 42.5122 29.5735 42.1362 30.0865 42.1362C30.5935 42.1362 30.9755 42.5182 30.9755 43.0152C30.9755 43.5102 30.5905 43.8922 30.0865 43.8922M30.0865 41.7842C29.3705 41.7842 28.8105 42.2852 28.8105 43.0152C28.8105 43.7462 29.3735 44.2442 30.0865 44.2442C30.7995 44.2442 31.3625 43.7432 31.3625 43.0152C31.3625 42.2852 30.8025 41.7842 30.0865 41.7842" fill="#231F20"/>
<path fill-rule="evenodd" clip-rule="evenodd" d="M42.5014 37.4782H36.2894L36.9954 26.6812L32.9614 37.4782H27.1934L36.3454 13.0742H42.4834L41.7754 24.0192L45.8854 13.0742H51.6534L42.5014 37.4782Z" fill="#231F20"/>
<path fill-rule="evenodd" clip-rule="evenodd" d="M43.252 37.4782L52.404 13.0742H58.172L49.02 37.4782H43.252Z" fill="#231F20"/>
<mask id="mask0_0_1705" style="mask-type:luminance" maskUnits="userSpaceOnUse" x="15" y="27" width="90" height="34">
<path fill-rule="evenodd" clip-rule="evenodd" d="M15 27.6299H105V60.0206H15V27.6299Z" fill="white"/>
</mask>
<g mask="url(#mask0_0_1705)">
<path fill-rule="evenodd" clip-rule="evenodd" d="M26.5292 29.0662C18.4682 38.5322 10.8652 51.1272 17.5812 56.9272C24.0892 62.5472 32.2232 59.2192 37.7692 57.0012C43.3162 54.7822 104.62 28.1602 104.62 28.1602C105.212 27.8642 105.101 27.4952 104.362 27.6792C104.063 27.7542 37.6222 45.7602 37.6222 45.7602C29.1912 48.1272 19.5782 42.9692 26.5292 29.0662" fill="#231F20"/>
</g>
<path fill-rule="evenodd" clip-rule="evenodd" d="M30.0895 42.8875H29.8985V42.5805H30.0595C30.1585 42.5805 30.2715 42.5925 30.2715 42.7205C30.2715 42.8575 30.2055 42.8875 30.0895 42.8875V42.8875ZM30.3045 43.1025C30.4835 43.0935 30.6235 43.0005 30.6235 42.7535C30.6235 42.4345 30.4145 42.3535 30.0655 42.3535H29.5645V43.6775H29.8985V43.1145H29.9555L30.2595 43.6775H30.6445L30.3045 43.1025Z" fill="#231F20"/>
<path fill-rule="evenodd" clip-rule="evenodd" d="M88.069 15.108C87.559 15.108 87.18 14.735 87.18 14.231C87.18 13.728 87.556 13.352 88.069 13.352C88.576 13.352 88.958 13.734 88.958 14.231C88.958 14.726 88.573 15.108 88.069 15.108M88.069 13C87.353 13 86.793 13.501 86.793 14.231C86.793 14.962 87.356 15.46 88.069 15.46C88.782 15.46 89.345 14.959 89.345 14.231C89.345 13.501 88.785 13 88.069 13" fill="#231F20"/>
<path fill-rule="evenodd" clip-rule="evenodd" d="M88.0719 14.1033H87.8809V13.7963H88.0419C88.1409 13.7963 88.2539 13.8083 88.2539 13.9363C88.2539 14.0733 88.1879 14.1033 88.0719 14.1033V14.1033ZM88.2869 14.3183C88.4659 14.3093 88.6059 14.2163 88.6059 13.9693C88.6059 13.6503 88.3969 13.5693 88.0479 13.5693H87.5469V14.8933H87.8809V14.3303H87.9379L88.2419 14.8933H88.6269L88.2869 14.3183Z" fill="#231F20"/>
<path fill-rule="evenodd" clip-rule="evenodd" d="M65.6769 35.8512L65.3069 23.1322L74.0289 13.5562L65.6769 35.8512ZM84.2689 17.1422L85.8189 13.0742H74.2609H74.2089H68.2189L62.1749 20.3952L64.9649 13.0742H59.1229L50.0449 37.4782H55.8129L59.6889 27.2732L59.9539 37.4782L77.6529 37.4402L79.3379 32.7452H72.6089L74.8189 26.8292H80.3659L82.0719 22.2812H76.5259L78.4269 17.1422H84.2689Z" fill="#231F20"/>
</svg>
