<svg width="120" height="74" viewBox="0 0 120 74" fill="none" xmlns="http://www.w3.org/2000/svg">
<rect opacity="0.01" width="120" height="74" fill="#F5F5F5"/>
<path fill-rule="evenodd" clip-rule="evenodd" d="M79.0625 39.6635H81.9465L80.5295 36.2705L79.0625 39.6635Z" fill="black"/>
<mask id="mask0_0_1822" style="mask-type:luminance" maskUnits="userSpaceOnUse" x="27" y="4" width="66" height="67">
<path fill-rule="evenodd" clip-rule="evenodd" d="M27 4H92.9997V70.8319H27V4Z" fill="white"/>
</mask>
<g mask="url(#mask0_0_1822)">
<path fill-rule="evenodd" clip-rule="evenodd" d="M83.433 43.251L82.842 41.853H78.234L77.645 43.251H74.69C76.636 38.997 78.583 34.803 80.529 30.913V30.913C82.473 34.743 84.477 38.997 86.495 43.251H83.433ZM73.342 34.131V34.131H68.555V36.144H73.347V38.689H68.555V40.69H73.347V43.235H65.723V31.573H73.347L73.342 34.131ZM58.56 43.919L58.556 43.915C56.552 40.096 54.545 35.709 52.541 31.577H55.725L58.554 37.898L61.277 31.577H64.397C62.454 35.719 60.507 40.091 58.56 43.919V43.919ZM48.396 43.247H51.225V31.581H48.396V43.247ZM37.462 37.172V43.251H34.633V30.913C37.172 33.159 39.645 35.41 42.124 37.66V31.581H44.952V31.581L44.954 43.919C42.355 41.673 39.822 39.293 37.462 37.172V37.172ZM92.841 34.141C92.735 33.052 92.577 31.97 92.366 30.897C92.155 29.824 91.893 28.763 91.579 27.716C91.266 26.669 90.902 25.64 90.488 24.628C90.075 23.617 89.613 22.629 89.104 21.664C88.594 20.699 88.039 19.761 87.439 18.851C86.838 17.941 86.195 17.063 85.51 16.217C84.824 15.371 84.099 14.561 83.335 13.788C82.571 13.014 81.771 12.28 80.935 11.585C80.1 10.891 79.233 10.24 78.334 9.632C77.435 9.024 76.51 8.462 75.556 7.946C74.603 7.43 73.627 6.963 72.629 6.544C71.63 6.125 70.614 5.757 69.58 5.439C68.545 5.121 67.498 4.856 66.438 4.642C65.378 4.429 64.31 4.268 63.235 4.161C62.159 4.054 61.081 4 60 4C58.92 4 57.841 4.054 56.766 4.161C55.69 4.268 54.622 4.429 53.562 4.642C52.502 4.856 51.455 5.121 50.421 5.439C49.387 5.757 48.37 6.125 47.372 6.544C46.373 6.963 45.397 7.43 44.444 7.946C43.491 8.462 42.565 9.024 41.666 9.632C40.768 10.24 39.901 10.891 39.065 11.585C38.23 12.28 37.43 13.014 36.666 13.788C35.902 14.561 35.177 15.371 34.491 16.217C33.805 17.063 33.162 17.941 32.562 18.851C31.961 19.761 31.406 20.699 30.897 21.664C30.387 22.629 29.926 23.617 29.512 24.628C29.099 25.64 28.735 26.669 28.421 27.716C28.108 28.763 27.845 29.824 27.634 30.897C27.424 31.97 27.265 33.052 27.159 34.141C27.053 35.23 27 36.322 27 37.416C27 38.511 27.053 39.602 27.159 40.692C27.265 41.781 27.424 42.862 27.634 43.935C27.845 45.009 28.108 46.069 28.421 47.116C28.735 48.164 29.099 49.193 29.512 50.204C29.926 51.215 30.387 52.203 30.897 53.168C31.406 54.134 31.961 55.071 32.562 55.981C33.162 56.891 33.805 57.769 34.491 58.615C35.177 59.461 35.902 60.271 36.666 61.045C37.43 61.819 38.23 62.553 39.065 63.247C39.901 63.941 40.768 64.592 41.666 65.201C42.565 65.809 43.491 66.37 44.444 66.886C45.397 67.402 46.373 67.87 47.372 68.288C48.37 68.707 49.387 69.076 50.421 69.393C51.455 69.711 52.502 69.977 53.562 70.19C54.622 70.404 55.69 70.564 56.766 70.671C57.841 70.778 58.92 70.832 60 70.832C61.081 70.832 62.159 70.778 63.235 70.671C64.31 70.564 65.378 70.404 66.438 70.19C67.498 69.977 68.545 69.711 69.58 69.393C70.614 69.076 71.63 68.707 72.629 68.288C73.627 67.87 74.603 67.402 75.556 66.886C76.51 66.37 77.435 65.809 78.334 65.201C79.233 64.592 80.1 63.941 80.935 63.247C81.771 62.553 82.571 61.819 83.335 61.045C84.099 60.271 84.824 59.461 85.51 58.615C86.195 57.769 86.838 56.891 87.439 55.981C88.039 55.071 88.594 54.134 89.104 53.168C89.613 52.203 90.075 51.215 90.488 50.204C90.902 49.193 91.266 48.164 91.579 47.116C91.893 46.069 92.155 45.009 92.366 43.935C92.577 42.862 92.735 41.781 92.841 40.692C92.947 39.602 93 38.511 93 37.416C93 36.322 92.947 35.23 92.841 34.141V34.141Z" fill="black"/>
</g>
</svg>
