<svg width="120" height="74" viewBox="0 0 120 74" fill="none" xmlns="http://www.w3.org/2000/svg">
<rect opacity="0.01" width="120" height="74" fill="#F5F5F5"/>
<mask id="mask0_0_1792" style="mask-type:luminance" maskUnits="userSpaceOnUse" x="3" y="27" width="115" height="20">
<path fill-rule="evenodd" clip-rule="evenodd" d="M3 27H118V47H3V27Z" fill="white"/>
</mask>
<g mask="url(#mask0_0_1792)">
<path fill-rule="evenodd" clip-rule="evenodd" d="M118 36.0604C118 36.7354 117.903 37.5057 117.807 37.9396C117.275 37.8914 116.794 37.8431 116.166 37.8431C115.634 37.8431 115.103 37.8914 114.572 37.9396V46.4215H112.399V36.4943C113.317 36.1569 114.91 35.9158 116.117 35.9158C116.745 35.964 117.517 35.964 118 36.0604M103.324 40.349H108.248C108.248 38.711 107.379 37.7467 105.882 37.7467C104.289 37.7949 103.469 38.6627 103.324 40.349M110.324 42.1811H103.324C103.614 43.9638 104.627 44.7834 106.606 44.7834C107.813 44.7834 109.021 44.5423 110.082 44.012C109.986 44.5905 109.889 45.3619 109.744 45.9875C108.731 46.4215 107.717 46.6143 106.51 46.6143C102.841 46.6143 101.103 44.5905 101.103 41.2168C101.103 38.277 102.454 35.9158 105.931 35.9158C109.069 35.9158 110.42 37.9396 110.42 40.4454C110.42 41.1204 110.42 41.6025 110.324 42.1811M97.1436 44.1566V38.036C96.564 37.9396 95.9855 37.8431 95.4059 37.8431C93.2324 37.8431 92.2193 39.1931 92.2193 41.4579C92.2193 43.4817 93.0404 44.928 94.9712 44.928C95.8395 44.8798 96.564 44.5905 97.1436 44.1566M99.3159 32.5432V46.4215H97.2885L97.1919 45.1679C96.6123 46.084 95.7923 46.6625 94.3433 46.6625C91.7363 46.6625 89.9503 44.7352 89.9503 41.4097C89.9503 37.9396 91.8329 35.9158 95.5025 35.9158C96.0821 35.9158 96.6123 35.964 97.1436 36.0604V32.7832C97.8198 32.5903 98.5926 32.5432 99.3159 32.5432M88.261 39.7716V46.4215H86.0392V40.1573C86.0392 38.5663 85.5091 37.8431 83.3356 37.8431C82.8054 37.8431 82.2258 37.8914 81.5979 37.9878V46.4215H79.4256V36.4943C80.8251 36.1569 82.3707 35.9158 83.3839 35.9158C87.0535 35.964 88.261 37.361 88.261 39.7716M74.8393 44.1566V37.9396C74.4046 37.8431 73.8733 37.8431 73.2454 37.8431C70.9765 37.8431 69.915 39.2413 69.915 41.4579C69.915 43.4817 70.735 44.928 72.6658 44.928C73.5835 44.8798 74.308 44.5905 74.8393 44.1566M77.06 36.4943V46.4215H75.0314L74.9359 45.2162C74.3563 46.084 73.5352 46.6625 72.1357 46.6625C69.5286 46.6625 67.7427 44.7352 67.7427 41.4097C67.7427 37.9396 69.6241 35.9158 73.2937 35.9158C74.7427 35.964 75.9008 36.1086 77.06 36.4943M65.3277 44.8316C65.9556 44.8316 66.5835 44.7352 67.0182 44.5423C66.9699 45.1209 66.8733 45.7947 66.7767 46.3732C66.1971 46.6143 65.5209 46.7107 64.9413 46.7107C62.8172 46.7107 61.466 45.7465 61.466 43.337V32.8796C62.1422 32.6385 62.9621 32.5432 63.6383 32.5432V36.3015H67.1136C67.0653 36.9765 67.0182 37.6021 66.9216 38.1806H63.6383V43.0478C63.6383 44.3013 64.2662 44.8316 65.3277 44.8316M59.2453 39.7716V46.4215H57.0718V40.1573C57.0718 38.5663 56.5405 37.8431 54.3693 37.8431C53.838 37.8431 53.2584 37.8914 52.6305 37.9878V46.4215H50.4582V36.4943C51.8577 36.1569 53.4033 35.9158 54.4176 35.9158C58.0861 35.964 59.2453 37.361 59.2453 39.7716M45.872 44.1566V37.9396C45.4373 37.8431 44.906 37.8431 44.2781 37.8431C42.0092 37.8431 40.9477 39.2413 40.9477 41.4579C40.9477 43.4817 41.7677 44.928 43.6985 44.928C44.6162 44.8798 45.2924 44.5905 45.872 44.1566M48.0444 36.4943V46.4215H46.0169L45.9203 45.2162C45.3407 46.084 44.5196 46.6625 43.1201 46.6625C40.513 46.6625 38.7271 44.7352 38.7271 41.4097C38.7271 37.9396 40.6096 35.9158 44.2781 35.9158C45.7271 35.964 46.9335 36.1086 48.0444 36.4943M28.2022 45.9875C28.2494 45.1679 28.346 44.6388 28.5875 43.9638C29.6984 44.4941 31.1462 44.7352 32.2088 44.7352C34.0431 44.7352 35.1057 44.1566 35.1057 42.9513C35.1057 41.7954 34.3329 41.2651 32.4986 40.4454L31.4843 40.0609C29.6018 39.2413 28.346 38.1806 28.346 36.1086C28.346 33.8438 29.9399 32.3975 33.1265 32.3975C34.4295 32.3975 35.637 32.5903 36.7467 32.976C36.6984 33.7474 36.5535 34.3742 36.3603 34.9516C35.2989 34.567 33.9948 34.3742 33.0782 34.3742C31.3394 34.3742 30.5678 35.048 30.5678 36.1086C30.5678 37.1211 31.3394 37.7467 32.7401 38.3253L33.8016 38.7592C36.312 39.8187 37.3747 40.9758 37.3747 42.9031C37.3747 45.1679 35.637 46.7589 32.2571 46.7589C30.6644 46.7589 29.312 46.5179 28.2022 45.9875M18.2076 36.2051C18.1593 35.4819 17.9672 34.7599 17.5808 34.1331L14.2976 28.3982C14.0561 27.9642 13.8629 27.4821 13.7663 27L13.6214 27.2411C12.8003 28.6392 12.8003 30.4219 13.6214 31.8201L16.2767 36.3979C17.0978 37.7949 17.0978 39.5776 16.2767 40.9758L16.1319 41.2168C16.0353 40.7347 15.842 40.2537 15.6005 39.8187L13.1867 35.6265L11.6423 32.9278C11.4008 32.4939 11.2076 32.0129 11.111 31.5308L10.9661 31.7719C10.145 33.1689 10.145 34.9045 10.9661 36.3497L13.6214 40.9276C14.4425 42.3257 14.4425 44.1084 13.6214 45.5054L13.4765 45.7465C13.3799 45.2644 13.1867 44.7834 12.9452 44.3495L9.6148 38.6145C9.1801 37.8431 8.9869 36.9765 8.9869 36.1086C5.46215 37.0247 3 39.0002 3 41.2651C3 44.4459 7.7311 47 13.5731 47C19.4151 47 24.1462 44.4459 24.1462 41.2651C24.1945 39.0967 21.7806 37.1211 18.2076 36.2051" fill="black"/>
</g>
</svg>
