<svg width="120" height="74" viewBox="0 0 120 74" fill="none" xmlns="http://www.w3.org/2000/svg">
<rect opacity="0.01" width="120" height="74" fill="#F5F5F5"/>
<mask id="mask0_0_1811" style="mask-type:luminance" maskUnits="userSpaceOnUse" x="20" y="23" width="80" height="28">
<path fill-rule="evenodd" clip-rule="evenodd" d="M20 23H99.9997V50.7717H20V23Z" fill="white"/>
</mask>
<g mask="url(#mask0_0_1811)">
<path fill-rule="evenodd" clip-rule="evenodd" d="M95.163 35.287C94.331 36.197 93.915 37.432 93.915 38.993V50.304H89.975V30.411H93.876V32.869C94.37 32.063 95.013 31.425 95.807 30.957C96.6 30.489 97.542 30.255 98.635 30.255H100V33.922H98.361C97.061 33.922 95.995 34.377 95.163 35.287ZM73.886 34.838C72.78 35.762 72.046 36.99 71.682 38.525H83.813C83.475 36.99 82.753 35.762 81.648 34.838C80.543 33.915 79.249 33.454 77.767 33.454C76.284 33.454 74.991 33.915 73.886 34.838ZM68.405 36.379C68.925 35.131 69.64 34.032 70.551 33.083C71.461 32.134 72.54 31.387 73.788 30.84C75.036 30.294 76.388 30.021 77.845 30.021C79.275 30.021 80.601 30.281 81.823 30.801C83.045 31.322 84.099 32.043 84.983 32.966C85.867 33.889 86.556 34.982 87.05 36.243C87.544 37.504 87.791 38.876 87.791 40.358V41.645H71.604C71.734 42.451 71.994 43.199 72.384 43.888C72.774 44.577 73.261 45.175 73.847 45.682C74.432 46.189 75.095 46.586 75.836 46.872C76.577 47.158 77.364 47.301 78.196 47.301C80.562 47.301 82.473 46.326 83.93 44.375L86.777 46.482C85.789 47.808 84.567 48.848 83.111 49.602C81.654 50.356 80.016 50.733 78.196 50.733C76.714 50.733 75.329 50.473 74.042 49.953C72.754 49.433 71.636 48.705 70.687 47.769C69.738 46.833 68.99 45.734 68.444 44.473C67.898 43.212 67.625 41.84 67.625 40.358C67.625 38.954 67.885 37.627 68.405 36.379ZM49.117 43.088C49.468 43.92 49.956 44.648 50.58 45.273C51.204 45.897 51.932 46.391 52.764 46.755C53.596 47.119 54.494 47.301 55.456 47.301C56.392 47.301 57.276 47.119 58.108 46.755C58.94 46.391 59.662 45.897 60.273 45.273C60.884 44.649 61.372 43.92 61.736 43.088C62.1 42.256 62.282 41.359 62.282 40.397C62.282 39.435 62.1 38.531 61.736 37.686C61.372 36.841 60.884 36.106 60.273 35.482C59.662 34.858 58.94 34.37 58.108 34.019C57.276 33.668 56.392 33.493 55.456 33.493C54.52 33.493 53.635 33.668 52.803 34.019C51.971 34.37 51.243 34.858 50.619 35.482C49.995 36.106 49.501 36.841 49.137 37.686C48.773 38.531 48.591 39.435 48.591 40.397C48.591 41.359 48.766 42.256 49.117 43.088ZM48.669 23V32.947C49.579 32.037 50.632 31.315 51.828 30.782C53.024 30.249 54.325 29.982 55.729 29.982C57.185 29.982 58.55 30.255 59.824 30.801C61.099 31.347 62.204 32.088 63.14 33.025C64.076 33.961 64.817 35.066 65.363 36.34C65.909 37.614 66.182 38.967 66.182 40.397C66.182 41.827 65.909 43.173 65.363 44.434C64.817 45.695 64.076 46.794 63.14 47.73C62.204 48.666 61.099 49.407 59.824 49.953C58.55 50.499 57.185 50.772 55.729 50.772C54.324 50.772 53.018 50.506 51.809 49.973C50.599 49.44 49.54 48.718 48.63 47.808V50.304H44.729V23H48.669ZM24.602 42.835C24.94 43.732 25.408 44.499 26.007 45.136C26.605 45.773 27.313 46.261 28.132 46.599C28.952 46.937 29.842 47.106 30.804 47.106C31.74 47.106 32.618 46.93 33.437 46.579C34.256 46.228 34.971 45.734 35.583 45.097C36.194 44.46 36.668 43.699 37.006 42.815C37.344 41.931 37.513 40.943 37.513 39.851V23H41.609V50.304H37.552V47.769C36.642 48.731 35.569 49.472 34.334 49.992C33.099 50.512 31.766 50.772 30.336 50.772C28.88 50.772 27.521 50.519 26.26 50.012C24.999 49.505 23.907 48.783 22.984 47.847C22.061 46.911 21.332 45.786 20.799 44.473C20.266 43.16 20 41.697 20 40.085V23H24.095V39.851C24.095 40.943 24.264 41.938 24.602 42.835Z" fill="#010202"/>
</g>
</svg>
