<svg width="120" height="74" viewBox="0 0 120 74" fill="none" xmlns="http://www.w3.org/2000/svg">
<rect opacity="0.01" width="120" height="74" fill="#F5F5F5"/>
<mask id="mask0_0_1636" style="mask-type:luminance" maskUnits="userSpaceOnUse" x="58" y="21" width="5" height="25">
<path fill-rule="evenodd" clip-rule="evenodd" d="M58.2617 21H62.4394V45.4853H58.2617V21Z" fill="white"/>
</mask>
<g mask="url(#mask0_0_1636)">
<path fill-rule="evenodd" clip-rule="evenodd" d="M59.6702 21.0959C60.3772 20.8849 61.2012 21.0199 61.7572 21.5219C62.2282 21.9609 62.4292 22.6169 62.4322 23.2479C62.4342 29.4549 62.4332 35.6619 62.4332 41.8689C62.3992 42.7979 62.5962 43.8409 62.0202 44.6499C61.4472 45.4839 60.2442 45.7039 59.3612 45.2639C58.6412 44.9059 58.2562 44.0809 58.2652 43.3009C58.2682 36.8809 58.2652 30.4589 58.2662 24.0389C58.2742 23.4659 58.2072 22.8709 58.4102 22.3229C58.6112 21.7499 59.0842 21.2699 59.6702 21.0959" fill="black"/>
</g>
<path fill-rule="evenodd" clip-rule="evenodd" d="M47.0757 33.7307C46.0757 34.2567 45.8287 35.4737 45.7277 36.4997C47.6837 36.5017 49.6407 36.4977 51.5967 36.5017C51.5217 35.4547 51.1727 34.2707 50.1767 33.7467C49.2237 33.2777 48.0357 33.2827 47.0757 33.7307M43.1327 32.8027C44.1907 31.2947 45.9517 30.3647 47.7697 30.1887C49.7007 29.9757 51.8307 30.3037 53.3267 31.6307C54.7157 32.8517 55.3357 34.7227 55.4617 36.5237C55.5007 37.2317 55.6057 38.0087 55.2357 38.6527C54.9477 39.1597 54.3137 39.2947 53.7747 39.2977C51.0927 39.3037 48.4087 39.2947 45.7267 39.3017C45.8977 40.2997 46.3647 41.3687 47.3557 41.7877C48.7387 42.3757 50.2987 42.0297 51.6807 41.6157C52.2287 41.4527 52.7957 41.2517 53.3767 41.3317C54.1857 41.5067 54.7617 42.3747 54.6687 43.1877C54.5907 43.8057 54.0807 44.2507 53.5717 44.5457C52.6367 45.0637 51.5677 45.2707 50.5167 45.3947C48.5277 45.6257 46.3727 45.4707 44.6657 44.3277C42.9747 43.2347 42.0057 41.2877 41.7677 39.3267C41.4927 37.0927 41.8027 34.6717 43.1327 32.8027" fill="black"/>
<path fill-rule="evenodd" clip-rule="evenodd" d="M26.979 30.2999C27.696 30.0979 28.545 30.2189 29.083 30.7649C29.539 31.2129 29.721 31.8649 29.718 32.4889C29.722 34.7929 29.717 37.0969 29.72 39.3999C29.715 40.2309 30.054 41.1159 30.78 41.5739C31.418 41.9879 32.213 42.0259 32.949 41.9399C33.58 41.8609 34.21 41.5649 34.578 41.0289C34.992 40.4429 35.05 39.7009 35.058 39.0049C35.059 36.7479 35.057 34.4899 35.058 32.2339C35.065 31.4469 35.539 30.6579 36.285 30.3689C37.096 30.0419 38.143 30.1969 38.71 30.9019C39.153 31.4109 39.239 32.1119 39.227 32.7629C39.213 34.8409 39.243 36.9209 39.213 38.9999C39.17 40.7789 38.688 42.6809 37.334 43.9229C35.882 45.2619 33.8 45.5859 31.895 45.5119C30.14 45.4519 28.275 44.9239 27.079 43.5649C25.983 42.3259 25.572 40.6249 25.553 39.0049C25.556 36.7479 25.549 34.4899 25.556 32.2339C25.566 31.3779 26.144 30.5399 26.979 30.2999Z" fill="black"/>
<path fill-rule="evenodd" clip-rule="evenodd" d="M78.1466 30.3218C80.1026 30.0758 82.2336 30.1658 83.9576 31.2238C85.1436 31.9348 85.9506 33.1628 86.2996 34.4868C86.5396 35.3628 86.6186 36.2768 86.6206 37.1838C86.6176 39.1778 86.6186 41.1728 86.6206 43.1678C86.6316 43.8278 86.4166 44.5228 85.9116 44.9708C85.1656 45.6378 83.9456 45.6528 83.1716 45.0278C82.6636 44.6158 82.3976 43.9498 82.4176 43.3018C82.4236 41.3048 82.4176 39.3068 82.4216 37.3098C82.4246 36.4298 82.4576 35.4638 81.9226 34.7108C81.4846 34.0638 80.6916 33.7668 79.9356 33.7398C79.1886 33.7178 78.3716 33.8608 77.8116 34.3958C77.2916 34.9158 77.1106 35.6788 77.1126 36.3948C77.1166 38.6578 77.1116 40.9208 77.1166 43.1818C77.1176 43.7208 77.0006 44.2798 76.6636 44.7128C75.9476 45.6698 74.3566 45.7498 73.5366 44.8868C73.1256 44.4718 72.9436 43.8788 72.9476 43.3058C72.9466 41.7858 72.9486 40.2678 72.9476 38.7488C72.9616 37.3608 72.8536 35.9468 73.2286 34.5908C73.5416 33.3008 74.2886 32.1028 75.3906 31.3438C76.2106 30.7868 77.1716 30.4678 78.1466 30.3218Z" fill="black"/>
<path fill-rule="evenodd" clip-rule="evenodd" d="M96.0312 33.7735C95.3942 33.8825 94.7752 34.1645 94.3252 34.6355C93.5042 35.5265 93.3182 36.7985 93.3192 37.9635C93.3362 39.0115 93.4182 40.1505 94.0682 41.0205C94.6832 41.8215 95.7772 42.0035 96.7282 41.9295C97.6362 41.8855 98.5342 41.3905 98.9512 40.5625C99.7332 39.0805 99.4552 37.3545 99.5102 35.7475C99.4812 35.2695 99.6532 34.6525 99.1752 34.3425C98.2852 33.6865 97.0902 33.6155 96.0312 33.7735M91.6462 31.9615C93.0682 30.7115 95.0042 30.1685 96.8722 30.2135C98.7032 30.2165 100.57 30.5915 102.174 31.4985C102.912 31.8995 103.466 32.6775 103.447 33.5395C103.447 37.8375 103.446 42.1365 103.449 46.4355C103.421 48.3805 102.798 50.4445 101.277 51.7455C99.7502 53.0605 97.6572 53.4455 95.6962 53.4195C94.1892 53.3565 92.6692 52.9755 91.3712 52.1905C90.9022 51.8895 90.4602 51.5145 90.1872 51.0225C89.6902 50.1045 90.2682 48.7955 91.2922 48.5645C92.0442 48.4475 92.7502 48.8155 93.4272 49.0905C94.3462 49.4955 95.3492 49.7245 96.3572 49.6885C97.2162 49.6865 98.1382 49.4725 98.7612 48.8445C99.3412 48.2415 99.5182 47.3715 99.5112 46.5625C99.5092 45.8125 99.5052 45.0635 99.5102 44.3135C98.3332 45.3485 96.6812 45.5975 95.1652 45.4995C93.5782 45.4015 92.0212 44.6935 90.9822 43.4745C89.5202 41.7995 89.0872 39.4675 89.2062 37.3035C89.3072 35.3045 90.1022 33.2805 91.6462 31.9615" fill="black"/>
<path fill-rule="evenodd" clip-rule="evenodd" d="M10.2122 31.4046C10.6532 30.5496 11.7422 30.2156 12.6422 30.3996C13.3562 30.5326 13.8652 31.1666 14.0442 31.8416C14.8672 34.6196 15.6922 37.3956 16.5102 40.1746C16.5542 40.3376 16.6312 40.4916 16.7202 40.6346C17.5812 37.7896 18.4172 34.9366 19.2612 32.0856C19.4202 31.4746 19.7142 30.8326 20.3132 30.5466C21.2752 30.1076 22.6002 30.4186 23.1452 31.3586C23.4932 31.9826 23.4042 32.7456 23.1532 33.3866C21.9822 36.6456 20.8342 39.9116 19.6672 43.1726C19.4232 43.7996 19.1882 44.4676 18.7002 44.9546C18.1952 45.4356 17.4552 45.4836 16.7942 45.4886C16.0592 45.4926 15.2422 45.4246 14.6782 44.8966C14.1612 44.4006 13.8902 43.7136 13.6452 43.0566C12.4882 39.7856 11.3402 36.5126 10.1772 33.2456C9.96118 32.6576 9.90918 31.9726 10.2122 31.4046" fill="black"/>
<path fill-rule="evenodd" clip-rule="evenodd" d="M66.9785 30.4986C67.8545 30.1506 68.9685 30.4156 69.5015 31.2176C69.8195 31.6616 69.8925 32.2256 69.8895 32.7576C69.8845 36.2306 69.8875 39.7036 69.8885 43.1766C69.8875 43.7576 69.7425 44.3636 69.3465 44.8056C68.5965 45.6906 67.0635 45.7156 66.2815 44.8596C65.9065 44.4396 65.7155 43.8726 65.7195 43.3136C65.7205 39.7076 65.7225 36.1016 65.7195 32.4956C65.6975 31.6626 66.1805 30.7996 66.9785 30.4986" fill="black"/>
<mask id="mask1_0_1636" style="mask-type:luminance" maskUnits="userSpaceOnUse" x="104" y="22" width="6" height="6">
<path fill-rule="evenodd" clip-rule="evenodd" d="M104.641 22.4121H109.999V27.6445H104.641V22.4121Z" fill="white"/>
</mask>
<g mask="url(#mask1_0_1636)">
<path fill-rule="evenodd" clip-rule="evenodd" d="M106.304 22.5677C106.963 22.3597 107.689 22.3597 108.348 22.5707C109.167 22.8337 109.816 23.5667 109.959 24.4167C110.049 25.1467 110.016 25.9547 109.568 26.5727C108.696 27.7937 106.801 27.9607 105.611 27.1287C104.081 25.9897 104.395 23.1277 106.304 22.5677" fill="black"/>
</g>
</svg>
