<svg width="120" height="74" viewBox="0 0 120 74" fill="none" xmlns="http://www.w3.org/2000/svg">
<rect opacity="0.01" width="120" height="74" fill="#F5F5F5"/>
<path fill-rule="evenodd" clip-rule="evenodd" d="M60 70C78.268 70 93 55.268 93 37C93 18.732 78.268 4 60 4C41.732 4 27 18.732 27 37C27 55.268 41.732 70 60 70ZM50.454 50.671C50.218 50.671 50.218 50.436 50.1 50.318L35.25 21.796C37.843 17.554 41.614 14.018 45.975 11.543L56.464 34.171C56.7 34.643 56.936 34.761 57.289 34.761H62.711C63.064 34.761 63.3 34.643 63.536 34.171L73.907 11.543C78.268 14.018 82.039 17.554 84.632 21.796L69.9 50.318C69.782 50.554 69.664 50.671 69.546 50.671C69.311 50.671 69.311 50.436 69.193 50.318L63.536 37.825C63.3 37.354 63.064 37.236 62.711 37.236H57.289C56.936 37.236 56.7 37.354 56.464 37.825L50.807 50.318C50.689 50.436 50.689 50.671 50.454 50.671ZM60 29.457C59.764 29.457 59.764 29.221 59.646 29.104L50.571 9.539C53.518 8.479 56.7 7.889 60 7.889C63.3 7.889 66.482 8.479 69.429 9.539L60.354 29.104C60.236 29.221 60.236 29.457 60 29.457ZM60 66.111C44.089 66.111 31.007 52.911 31.007 37C31.007 33.7 31.596 30.518 32.657 27.454L49.629 60.454C49.864 60.925 50.1 61.279 50.689 61.279C51.279 61.279 51.514 60.925 51.75 60.454L59.646 42.893C59.764 42.657 59.882 42.539 60 42.539C60.236 42.539 60.236 42.775 60.354 42.893L68.368 60.454C68.604 60.925 68.839 61.279 69.429 61.279C70.018 61.279 70.254 60.925 70.489 60.454L87.461 27.454C88.521 30.4 89.111 33.582 89.111 37C88.993 52.911 75.911 66.111 60 66.111Z" fill="black"/>
</svg>
